<svg width="79" height="102" viewBox="0 0 79 102" fill="none" xmlns="http://www.w3.org/2000/svg">
<path d="M39.5772 41.1019C39.7665 40.5171 40.3207 39.9345 40.773 40.3458C41.1983 40.7325 39.8217 49.0409 38.4033 54.7926C38.344 55.0331 38.1094 55.1869 37.8649 55.1485C37.6154 55.1093 37.442 54.8808 37.4696 54.6299C38.1485 48.4467 38.576 44.1939 39.5772 41.1019Z" fill="#53320B"/>
<path d="M41.5772 59.1019C41.7665 58.5171 42.3207 57.9345 42.773 58.3458C43.1983 58.7325 41.8217 67.0409 40.4033 72.7926C40.344 73.0331 40.1094 73.1869 39.8649 73.1485C39.6154 73.1093 39.442 72.8808 39.4696 72.6299C40.1485 66.4467 40.576 62.1939 41.5772 59.1019Z" fill="#53320B"/>
<path d="M75.5772 59.1019C75.7665 58.5171 76.3207 57.9345 76.773 58.3458C77.1983 58.7325 75.8217 67.0409 74.4033 72.7926C74.344 73.0331 74.1094 73.1869 73.8649 73.1485C73.6154 73.1093 73.442 72.8808 73.4696 72.6299C74.1485 66.4467 74.576 62.1939 75.5772 59.1019Z" fill="#53320B"/>
<path d="M71.2175 77.1058C71.2156 76.5034 71.5596 75.8211 72.1259 76.0359C72.6468 76.2335 73.8591 83.4653 74.2639 88.636C74.2833 88.8828 74.1094 89.1002 73.8646 89.1386C73.6142 89.178 73.3743 89.0152 73.3168 88.7681C72.1017 83.5401 71.2263 79.9314 71.2175 77.1058Z" fill="#53320B"/>
<path d="M47.5772 76.8882C47.7665 76.3034 48.3207 75.7209 48.773 76.1321C49.1983 76.5189 47.8217 84.8273 46.4033 90.579C46.344 90.8194 46.1094 90.9733 45.8649 90.9349C45.6154 90.8957 45.442 90.6671 45.4696 90.4163C46.1485 84.2331 46.576 79.9803 47.5772 76.8882Z" fill="#53320B"/>
<rect x="46" y="69" width="28" height="25" rx="10" fill="#C5B66B"/>
<g filter="url(#filter0_d_44_10369)">
<path d="M52.1674 78.748C57.0441 75.0194 64.4185 75.1491 68.9749 78.748C73.5313 82.3469 68.9749 93 68.9749 93H52.1674C52.1674 93 47.2907 82.4766 52.1674 78.748Z" fill="#78A369"/>
<path d="M69.3049 93.5L69.4347 93.1966L68.9749 93C69.4347 93.1966 69.4347 93.1965 69.4348 93.1963L69.435 93.1957L69.4359 93.1938L69.4387 93.1871L69.4491 93.1624C69.4581 93.1409 69.4711 93.1095 69.4878 93.0687C69.5211 92.9872 69.569 92.8682 69.628 92.716C69.746 92.4118 69.9088 91.9745 70.0894 91.4391C70.4503 90.3697 70.885 88.9012 71.1754 87.3136C71.4651 85.7303 71.6163 84.0022 71.3922 82.4229C71.1678 80.8417 70.5589 79.3619 69.2849 78.3556C64.5474 74.6138 56.9203 74.4847 51.8637 78.3508C50.5115 79.3847 49.8571 80.8773 49.6157 82.4731C49.3751 84.0633 49.5376 85.7914 49.8481 87.3688C50.1594 88.9506 50.6253 90.4086 51.0119 91.4688C51.2055 91.9996 51.3799 92.4327 51.5064 92.734C51.5696 92.8847 51.6209 93.0026 51.6567 93.0833C51.6745 93.1237 51.6885 93.1548 51.6982 93.1761L51.7094 93.2007L51.7125 93.2074L51.7133 93.2093L51.7136 93.2099C51.7137 93.2101 51.7138 93.2102 52.1674 93L51.7138 93.2102L51.8481 93.5H52.1674H68.9749H69.3049Z" stroke="#53320B"/>
</g>
<path d="M50.0101 92.193C50.2869 91.5025 51.0103 91.0255 51.6784 91.3451C52.2454 91.6164 51.5031 96.2244 50.409 99.5302C50.3081 99.835 49.9985 100.018 49.6817 99.9678C49.3502 99.9157 49.1121 99.6237 49.1264 99.2888C49.2609 96.1434 49.3408 93.8624 50.0101 92.193Z" fill="#53320B"/>
<path d="M69.3917 91.487C69.4274 90.7444 69.9457 90.0489 70.6836 90.1637C71.3151 90.262 72.1716 95.2696 72.2454 99.0195C72.2517 99.3398 72.0184 99.6098 71.7016 99.6596C71.3712 99.7115 71.052 99.5063 70.9601 99.1843C70.0058 95.8409 69.2981 93.4388 69.3917 91.487Z" fill="#53320B"/>
<path d="M69.2175 23.1058C69.2156 22.5034 69.5596 21.8211 70.1259 22.0359C70.6468 22.2335 71.8591 29.4653 72.2639 34.636C72.2833 34.8828 72.1094 35.1002 71.8646 35.1386C71.6142 35.178 71.3743 35.0152 71.3168 34.7681C70.1017 29.5401 69.2263 25.9314 69.2175 23.1058Z" fill="#53320B"/>
<path d="M45.5772 22.8882C45.7665 22.3034 46.3207 21.7209 46.773 22.1321C47.1983 22.5189 45.8217 30.8273 44.4033 36.579C44.344 36.8194 44.1094 36.9733 43.8649 36.9349C43.6154 36.8957 43.442 36.6671 43.4696 36.4163C44.1485 30.2331 44.576 25.9803 45.5772 22.8882Z" fill="#53320B"/>
<rect x="44" y="15" width="28" height="25" rx="10" fill="#C5B66B"/>
<g filter="url(#filter1_d_44_10369)">
<path d="M50.1674 3.74802C55.0441 0.0194235 62.4185 0.149138 66.9749 3.74802C71.5313 7.3469 66.9749 18 66.9749 18H50.1674C50.1674 18 45.2907 7.47661 50.1674 3.74802Z" fill="#78A369"/>
<path d="M67.3049 18.5L67.4347 18.1966L66.9749 18C67.4347 18.1966 67.4347 18.1965 67.4348 18.1963L67.435 18.1957L67.4359 18.1938L67.4387 18.1871L67.4491 18.1624C67.4581 18.1409 67.4711 18.1095 67.4878 18.0687C67.5211 17.9872 67.569 17.8682 67.628 17.716C67.746 17.4118 67.9088 16.9745 68.0894 16.4391C68.4503 15.3697 68.885 13.9012 69.1754 12.3136C69.4651 10.7303 69.6163 9.00215 69.3922 7.42291C69.1678 5.84173 68.5589 4.36193 67.2849 3.35565C62.5474 -0.386232 54.9203 -0.51533 49.8637 3.35081C48.5115 4.38471 47.8571 5.87727 47.6157 7.47309C47.3751 9.06327 47.5376 10.7914 47.8481 12.3688C48.1594 13.9506 48.6253 15.4086 49.0119 16.4688C49.2055 16.9996 49.3799 17.4327 49.5064 17.734C49.5696 17.8847 49.6209 18.0026 49.6567 18.0833C49.6745 18.1237 49.6885 18.1548 49.6982 18.1761L49.7094 18.2007L49.7125 18.2074L49.7133 18.2093L49.7136 18.2099C49.7137 18.2101 49.7138 18.2102 50.1674 18L49.7138 18.2102L49.8481 18.5H50.1674H66.9749H67.3049Z" stroke="#53320B"/>
</g>
<path d="M48.0101 38.193C48.2869 37.5025 49.0103 37.0255 49.6784 37.3451C50.2454 37.6164 49.5031 42.2244 48.409 45.5302C48.3081 45.835 47.9985 46.0175 47.6817 45.9678C47.3502 45.9157 47.1121 45.6237 47.1264 45.2888C47.2609 42.1434 47.3408 39.8624 48.0101 38.193Z" fill="#53320B"/>
<path d="M67.3917 37.487C67.4274 36.7444 67.9457 36.0489 68.6836 36.1637C69.3151 36.262 70.1716 41.2696 70.2454 45.0195C70.2517 45.3398 70.0184 45.6098 69.7016 45.6596C69.3712 45.7115 69.052 45.5063 68.9601 45.1843C68.0058 41.8409 67.2981 39.4388 67.3917 37.487Z" fill="#53320B"/>
<path d="M75.5772 59.1019C75.7665 58.5171 76.3207 57.9345 76.773 58.3458C77.1983 58.7325 75.8217 67.0409 74.4033 72.7926C74.344 73.0331 74.1094 73.1869 73.8649 73.1485C73.6154 73.1093 73.442 72.8808 73.4696 72.6299C74.1485 66.4467 74.576 62.1939 75.5772 59.1019Z" fill="#53320B"/>
<path d="M39.5772 41.1019C39.7665 40.5171 40.3207 39.9345 40.773 40.3458C41.1983 40.7325 39.8217 49.0409 38.4033 54.7926C38.344 55.0331 38.1094 55.1869 37.8649 55.1485C37.6154 55.1093 37.442 54.8808 37.4696 54.6299C38.1485 48.4467 38.576 44.1939 39.5772 41.1019Z" fill="#53320B"/>
<path d="M41.5772 59.1019C41.7665 58.5171 42.3207 57.9345 42.773 58.3458C43.1983 58.7325 41.8217 67.0409 40.4033 72.7926C40.344 73.0331 40.1094 73.1869 39.8649 73.1485C39.6154 73.1093 39.442 72.8808 39.4696 72.6299C40.1485 66.4467 40.576 62.1939 41.5772 59.1019Z" fill="#53320B"/>
<path d="M50 69C44.4772 69 40 64.5228 40 59L40 41C40 35.4772 44.4772 31 50 31L69 31C74.5228 31 79 35.4772 79 41V59C79 64.5228 74.5228 69 69 69H50Z" fill="#F77E7E"/>
<path d="M2.57717 41.1019C2.76651 40.5171 3.32069 39.9345 3.77297 40.3458C4.1983 40.7325 2.82168 49.0409 1.40329 54.7926C1.34399 55.0331 1.10938 55.1869 0.864883 55.1485C0.615436 55.1093 0.442033 54.8808 0.469579 54.6299C1.14851 48.4467 1.57604 44.1939 2.57717 41.1019Z" fill="#53320B"/>
<path d="M4.57717 59.1019C4.76651 58.5171 5.32069 57.9345 5.77297 58.3458C6.1983 58.7325 4.82168 67.0409 3.40329 72.7926C3.34399 73.0331 3.10938 73.1869 2.86488 73.1485C2.61544 73.1093 2.44203 72.8808 2.46958 72.6299C3.14851 66.4467 3.57604 62.1939 4.57717 59.1019Z" fill="#53320B"/>
<path d="M38.5772 59.1019C38.7665 58.5171 39.3207 57.9345 39.773 58.3458C40.1983 58.7325 38.8217 67.0409 37.4033 72.7926C37.344 73.0331 37.1094 73.1869 36.8649 73.1485C36.6154 73.1093 36.442 72.8808 36.4696 72.6299C37.1485 66.4467 37.576 62.1939 38.5772 59.1019Z" fill="#53320B"/>
<path d="M34.2175 77.1058C34.2156 76.5034 34.5596 75.8211 35.1259 76.0359C35.6468 76.2335 36.8591 83.4653 37.2639 88.636C37.2833 88.8828 37.1094 89.1002 36.8646 89.1386C36.6142 89.178 36.3743 89.0152 36.3168 88.7681C35.1017 83.5401 34.2263 79.9314 34.2175 77.1058Z" fill="#53320B"/>
<path d="M10.5772 76.8882C10.7665 76.3034 11.3207 75.7209 11.773 76.1321C12.1983 76.5189 10.8217 84.8273 9.40329 90.579C9.34399 90.8194 9.10938 90.9733 8.86488 90.9349C8.61544 90.8957 8.44203 90.6671 8.46958 90.4163C9.14851 84.2331 9.57604 79.9803 10.5772 76.8882Z" fill="#53320B"/>
<rect x="9" y="69" width="28" height="25" rx="10" fill="#C5B66B"/>
<g filter="url(#filter2_d_44_10369)">
<path d="M15.1674 78.748C20.0441 75.0194 27.4185 75.1491 31.9749 78.748C36.5313 82.3469 31.9749 93 31.9749 93H15.1674C15.1674 93 10.2907 82.4766 15.1674 78.748Z" fill="#78A369"/>
<path d="M32.3049 93.5L32.4347 93.1966L31.9749 93C32.4347 93.1966 32.4347 93.1965 32.4348 93.1963L32.435 93.1957L32.4359 93.1938L32.4387 93.1871L32.4491 93.1624C32.4581 93.1409 32.4711 93.1095 32.4878 93.0687C32.5211 92.9872 32.569 92.8682 32.628 92.716C32.746 92.4118 32.9088 91.9745 33.0894 91.4391C33.4503 90.3697 33.885 88.9012 34.1754 87.3136C34.4651 85.7303 34.6163 84.0022 34.3922 82.4229C34.1678 80.8417 33.5589 79.3619 32.2849 78.3556C27.5474 74.6138 19.9203 74.4847 14.8637 78.3508C13.5115 79.3847 12.8571 80.8773 12.6157 82.4731C12.3751 84.0633 12.5376 85.7914 12.8481 87.3688C13.1594 88.9506 13.6253 90.4086 14.0119 91.4688C14.2055 91.9996 14.3799 92.4327 14.5064 92.734C14.5696 92.8847 14.6209 93.0026 14.6567 93.0833C14.6745 93.1237 14.6885 93.1548 14.6982 93.1761L14.7094 93.2007L14.7125 93.2074L14.7133 93.2093L14.7136 93.2099C14.7137 93.2101 14.7138 93.2102 15.1674 93L14.7138 93.2102L14.8481 93.5H15.1674H31.9749H32.3049Z" stroke="#53320B"/>
</g>
<path d="M13.0101 92.193C13.2869 91.5025 14.0103 91.0255 14.6784 91.3451C15.2454 91.6164 14.5031 96.2244 13.409 99.5302C13.3081 99.835 12.9985 100.018 12.6817 99.9678C12.3502 99.9157 12.1121 99.6237 12.1264 99.2888C12.2609 96.1434 12.3408 93.8624 13.0101 92.193Z" fill="#53320B"/>
<path d="M32.3917 91.487C32.4274 90.7444 32.9457 90.0489 33.6836 90.1637C34.3151 90.262 35.1716 95.2696 35.2454 99.0195C35.2517 99.3398 35.0184 99.6098 34.7016 99.6596C34.3712 99.7115 34.052 99.5063 33.9601 99.1843C33.0058 95.8409 32.2981 93.4388 32.3917 91.487Z" fill="#53320B"/>
<path d="M32.2175 23.1058C32.2156 22.5034 32.5596 21.8211 33.1259 22.0359C33.6468 22.2335 34.8591 29.4653 35.2639 34.636C35.2833 34.8828 35.1094 35.1002 34.8646 35.1386C34.6142 35.178 34.3743 35.0152 34.3168 34.7681C33.1017 29.5401 32.2263 25.9314 32.2175 23.1058Z" fill="#53320B"/>
<path d="M8.57717 22.8882C8.76651 22.3034 9.32069 21.7209 9.77297 22.1321C10.1983 22.5189 8.82168 30.8273 7.40329 36.579C7.34399 36.8194 7.10938 36.9733 6.86488 36.9349C6.61544 36.8957 6.44203 36.6671 6.46958 36.4163C7.14851 30.2331 7.57604 25.9803 8.57717 22.8882Z" fill="#53320B"/>
<rect x="7" y="15" width="28" height="25" rx="10" fill="#C5B66B"/>
<g filter="url(#filter3_d_44_10369)">
<path d="M13.1674 3.74802C18.0441 0.0194235 25.4185 0.149138 29.9749 3.74802C34.5313 7.3469 29.9749 18 29.9749 18H13.1674C13.1674 18 8.29072 7.47661 13.1674 3.74802Z" fill="#78A369"/>
<path d="M30.3049 18.5L30.4347 18.1966L29.9749 18C30.4347 18.1966 30.4347 18.1965 30.4348 18.1963L30.435 18.1957L30.4359 18.1938L30.4387 18.1871L30.4491 18.1624C30.4581 18.1409 30.4711 18.1095 30.4878 18.0687C30.5211 17.9872 30.569 17.8682 30.628 17.716C30.746 17.4118 30.9088 16.9745 31.0894 16.4391C31.4503 15.3697 31.885 13.9012 32.1754 12.3136C32.4651 10.7303 32.6163 9.00215 32.3922 7.42291C32.1678 5.84173 31.5589 4.36193 30.2849 3.35565C25.5474 -0.386232 17.9203 -0.51533 12.8637 3.35081C11.5115 4.38471 10.8571 5.87727 10.6157 7.47309C10.3751 9.06327 10.5376 10.7914 10.8481 12.3688C11.1594 13.9506 11.6253 15.4086 12.0119 16.4688C12.2055 16.9996 12.3799 17.4327 12.5064 17.734C12.5696 17.8847 12.6209 18.0026 12.6567 18.0833C12.6745 18.1237 12.6885 18.1548 12.6982 18.1761L12.7094 18.2007L12.7125 18.2074L12.7133 18.2093L12.7136 18.2099C12.7137 18.2101 12.7138 18.2102 13.1674 18L12.7138 18.2102L12.8481 18.5H13.1674H29.9749H30.3049Z" stroke="#53320B"/>
</g>
<path d="M11.0101 38.193C11.2869 37.5025 12.0103 37.0255 12.6784 37.3451C13.2454 37.6164 12.5031 42.2244 11.409 45.5302C11.3081 45.835 10.9985 46.0175 10.6817 45.9678C10.3502 45.9157 10.1121 45.6237 10.1264 45.2888C10.2609 42.1434 10.3408 39.8624 11.0101 38.193Z" fill="#53320B"/>
<path d="M30.3917 37.487C30.4274 36.7444 30.9457 36.0489 31.6836 36.1637C32.3151 36.262 33.1716 41.2696 33.2454 45.0195C33.2517 45.3398 33.0184 45.6098 32.7016 45.6596C32.3712 45.7115 32.052 45.5063 31.9601 45.1843C31.0058 41.8409 30.2981 39.4388 30.3917 37.487Z" fill="#53320B"/>
<path d="M38.5772 59.1019C38.7665 58.5171 39.3207 57.9345 39.773 58.3458C40.1983 58.7325 38.8217 67.0409 37.4033 72.7926C37.344 73.0331 37.1094 73.1869 36.8649 73.1485C36.6154 73.1093 36.442 72.8808 36.4696 72.6299C37.1485 66.4467 37.576 62.1939 38.5772 59.1019Z" fill="#53320B"/>
<path d="M2.57717 41.1019C2.76651 40.5171 3.32069 39.9345 3.77297 40.3458C4.1983 40.7325 2.82168 49.0409 1.40329 54.7926C1.34399 55.0331 1.10938 55.1869 0.864883 55.1485C0.615436 55.1093 0.442033 54.8808 0.469579 54.6299C1.14851 48.4467 1.57604 44.1939 2.57717 41.1019Z" fill="#53320B"/>
<path d="M4.57717 59.1019C4.76651 58.5171 5.32069 57.9345 5.77297 58.3458C6.1983 58.7325 4.82168 67.0409 3.40329 72.7926C3.34399 73.0331 3.10938 73.1869 2.86488 73.1485C2.61544 73.1093 2.44203 72.8808 2.46958 72.6299C3.14851 66.4467 3.57604 62.1939 4.57717 59.1019Z" fill="#53320B"/>
<path d="M13 69C7.47715 69 3 64.5228 3 59L3 41C3 35.4772 7.47715 31 13 31L32 31C37.5228 31 42 35.4772 42 41L42 59C42 64.5228 37.5228 69 32 69H13Z" fill="#F77E7E"/>
<defs>
<filter id="filter0_d_44_10369" x="45" y="75" width="31" height="27" filterUnits="userSpaceOnUse" color-interpolation-filters="sRGB">
<feFlood flood-opacity="0" result="BackgroundImageFix"/>
<feColorMatrix in="SourceAlpha" type="matrix" values="0 0 0 0 0 0 0 0 0 0 0 0 0 0 0 0 0 0 127 0" result="hardAlpha"/>
<feOffset dy="4"/>
<feGaussianBlur stdDeviation="2"/>
<feComposite in2="hardAlpha" operator="out"/>
<feColorMatrix type="matrix" values="0 0 0 0 0 0 0 0 0 0 0 0 0 0 0 0 0 0 0.25 0"/>
<feBlend mode="normal" in2="BackgroundImageFix" result="effect1_dropShadow_44_10369"/>
<feBlend mode="normal" in="SourceGraphic" in2="effect1_dropShadow_44_10369" result="shape"/>
</filter>
<filter id="filter1_d_44_10369" x="43" y="0" width="31" height="27" filterUnits="userSpaceOnUse" color-interpolation-filters="sRGB">
<feFlood flood-opacity="0" result="BackgroundImageFix"/>
<feColorMatrix in="SourceAlpha" type="matrix" values="0 0 0 0 0 0 0 0 0 0 0 0 0 0 0 0 0 0 127 0" result="hardAlpha"/>
<feOffset dy="4"/>
<feGaussianBlur stdDeviation="2"/>
<feComposite in2="hardAlpha" operator="out"/>
<feColorMatrix type="matrix" values="0 0 0 0 0 0 0 0 0 0 0 0 0 0 0 0 0 0 0.25 0"/>
<feBlend mode="normal" in2="BackgroundImageFix" result="effect1_dropShadow_44_10369"/>
<feBlend mode="normal" in="SourceGraphic" in2="effect1_dropShadow_44_10369" result="shape"/>
</filter>
<filter id="filter2_d_44_10369" x="8" y="75" width="31" height="27" filterUnits="userSpaceOnUse" color-interpolation-filters="sRGB">
<feFlood flood-opacity="0" result="BackgroundImageFix"/>
<feColorMatrix in="SourceAlpha" type="matrix" values="0 0 0 0 0 0 0 0 0 0 0 0 0 0 0 0 0 0 127 0" result="hardAlpha"/>
<feOffset dy="4"/>
<feGaussianBlur stdDeviation="2"/>
<feComposite in2="hardAlpha" operator="out"/>
<feColorMatrix type="matrix" values="0 0 0 0 0 0 0 0 0 0 0 0 0 0 0 0 0 0 0.25 0"/>
<feBlend mode="normal" in2="BackgroundImageFix" result="effect1_dropShadow_44_10369"/>
<feBlend mode="normal" in="SourceGraphic" in2="effect1_dropShadow_44_10369" result="shape"/>
</filter>
<filter id="filter3_d_44_10369" x="6" y="0" width="31" height="27" filterUnits="userSpaceOnUse" color-interpolation-filters="sRGB">
<feFlood flood-opacity="0" result="BackgroundImageFix"/>
<feColorMatrix in="SourceAlpha" type="matrix" values="0 0 0 0 0 0 0 0 0 0 0 0 0 0 0 0 0 0 127 0" result="hardAlpha"/>
<feOffset dy="4"/>
<feGaussianBlur stdDeviation="2"/>
<feComposite in2="hardAlpha" operator="out"/>
<feColorMatrix type="matrix" values="0 0 0 0 0 0 0 0 0 0 0 0 0 0 0 0 0 0 0.25 0"/>
<feBlend mode="normal" in2="BackgroundImageFix" result="effect1_dropShadow_44_10369"/>
<feBlend mode="normal" in="SourceGraphic" in2="effect1_dropShadow_44_10369" result="shape"/>
</filter>
</defs>
</svg>
