<svg width="114" height="102" viewBox="0 0 114 102" fill="none" xmlns="http://www.w3.org/2000/svg">
<path d="M74.5772 41.1019C74.7665 40.5171 75.3207 39.9345 75.773 40.3458C76.1983 40.7325 74.8217 49.0409 73.4033 54.7926C73.344 55.0331 73.1094 55.1869 72.8649 55.1485C72.6154 55.1093 72.442 54.8808 72.4696 54.6299C73.1485 48.4467 73.576 44.1939 74.5772 41.1019Z" fill="#53320B"/>
<path d="M76.5772 59.1019C76.7665 58.5171 77.3207 57.9345 77.773 58.3458C78.1983 58.7325 76.8217 67.0409 75.4033 72.7926C75.344 73.0331 75.1094 73.1869 74.8649 73.1485C74.6154 73.1093 74.442 72.8808 74.4696 72.6299C75.1485 66.4467 75.576 62.1939 76.5772 59.1019Z" fill="#53320B"/>
<path d="M110.577 59.1019C110.767 58.5171 111.321 57.9345 111.773 58.3458C112.198 58.7325 110.822 67.0409 109.403 72.7926C109.344 73.0331 109.109 73.1869 108.865 73.1485C108.615 73.1093 108.442 72.8808 108.47 72.6299C109.149 66.4467 109.576 62.1939 110.577 59.1019Z" fill="#53320B"/>
<path d="M106.217 77.1058C106.216 76.5034 106.56 75.8211 107.126 76.0359C107.647 76.2335 108.859 83.4653 109.264 88.636C109.283 88.8828 109.109 89.1002 108.865 89.1386C108.614 89.178 108.374 89.0152 108.317 88.7681C107.102 83.5401 106.226 79.9314 106.217 77.1058Z" fill="#53320B"/>
<path d="M82.5772 76.8882C82.7665 76.3034 83.3207 75.7209 83.773 76.1321C84.1983 76.5189 82.8217 84.8273 81.4033 90.579C81.344 90.8194 81.1094 90.9733 80.8649 90.9349C80.6154 90.8957 80.442 90.6671 80.4696 90.4163C81.1485 84.2331 81.576 79.9803 82.5772 76.8882Z" fill="#53320B"/>
<rect x="81" y="69" width="28" height="25" rx="10" fill="#C5B66B"/>
<g filter="url(#filter0_d_44_10415)">
<path d="M87.1674 78.748C92.0441 75.0194 99.4185 75.1491 103.975 78.748C108.531 82.3469 103.975 93 103.975 93H87.1674C87.1674 93 82.2907 82.4766 87.1674 78.748Z" fill="#78A369"/>
<path d="M104.305 93.5L104.435 93.1966L103.975 93C104.435 93.1966 104.435 93.1965 104.435 93.1963L104.435 93.1957L104.436 93.1938L104.439 93.1871L104.449 93.1624C104.458 93.1409 104.471 93.1095 104.488 93.0687C104.521 92.9872 104.569 92.8682 104.628 92.716C104.746 92.4118 104.909 91.9745 105.089 91.4391C105.45 90.3697 105.885 88.9012 106.175 87.3136C106.465 85.7303 106.616 84.0022 106.392 82.4229C106.168 80.8417 105.559 79.3619 104.285 78.3556C99.5474 74.6138 91.9203 74.4847 86.8637 78.3508C85.5115 79.3847 84.8571 80.8773 84.6157 82.4731C84.3751 84.0633 84.5376 85.7914 84.8481 87.3688C85.1594 88.9506 85.6253 90.4086 86.0119 91.4688C86.2055 91.9996 86.3799 92.4327 86.5064 92.734C86.5696 92.8847 86.6209 93.0026 86.6567 93.0833C86.6745 93.1237 86.6885 93.1548 86.6982 93.1761L86.7094 93.2007L86.7125 93.2074L86.7133 93.2093L86.7136 93.2099C86.7137 93.2101 86.7138 93.2102 87.1674 93L86.7138 93.2102L86.8481 93.5H87.1674H103.975H104.305Z" stroke="#53320B"/>
</g>
<path d="M85.0101 92.193C85.2869 91.5025 86.0103 91.0255 86.6784 91.3451C87.2454 91.6164 86.5031 96.2244 85.409 99.5302C85.3081 99.835 84.9985 100.018 84.6817 99.9678C84.3502 99.9157 84.1121 99.6237 84.1264 99.2888C84.2609 96.1434 84.3408 93.8624 85.0101 92.193Z" fill="#53320B"/>
<path d="M104.392 91.487C104.427 90.7444 104.946 90.0489 105.684 90.1637C106.315 90.262 107.172 95.2696 107.245 99.0195C107.252 99.3398 107.018 99.6098 106.702 99.6596C106.371 99.7115 106.052 99.5063 105.96 99.1843C105.006 95.8409 104.298 93.4388 104.392 91.487Z" fill="#53320B"/>
<path d="M104.217 23.1058C104.216 22.5034 104.56 21.8211 105.126 22.0359C105.647 22.2335 106.859 29.4653 107.264 34.636C107.283 34.8828 107.109 35.1002 106.865 35.1386C106.614 35.178 106.374 35.0152 106.317 34.7681C105.102 29.5401 104.226 25.9314 104.217 23.1058Z" fill="#53320B"/>
<path d="M80.5772 22.8882C80.7665 22.3034 81.3207 21.7209 81.773 22.1321C82.1983 22.5189 80.8217 30.8273 79.4033 36.579C79.344 36.8194 79.1094 36.9733 78.8649 36.9349C78.6154 36.8957 78.442 36.6671 78.4696 36.4163C79.1485 30.2331 79.576 25.9803 80.5772 22.8882Z" fill="#53320B"/>
<rect x="79" y="15" width="28" height="25" rx="10" fill="#C5B66B"/>
<g filter="url(#filter1_d_44_10415)">
<path d="M85.1674 3.74802C90.0441 0.0194235 97.4185 0.149138 101.975 3.74802C106.531 7.3469 101.975 18 101.975 18H85.1674C85.1674 18 80.2907 7.47661 85.1674 3.74802Z" fill="#78A369"/>
<path d="M102.305 18.5L102.435 18.1966L101.975 18C102.435 18.1966 102.435 18.1965 102.435 18.1963L102.435 18.1957L102.436 18.1938L102.439 18.1871L102.449 18.1624C102.458 18.1409 102.471 18.1095 102.488 18.0687C102.521 17.9872 102.569 17.8682 102.628 17.716C102.746 17.4118 102.909 16.9745 103.089 16.4391C103.45 15.3697 103.885 13.9012 104.175 12.3136C104.465 10.7303 104.616 9.00215 104.392 7.42291C104.168 5.84173 103.559 4.36193 102.285 3.35565C97.5474 -0.386232 89.9203 -0.51533 84.8637 3.35081C83.5115 4.38471 82.8571 5.87727 82.6157 7.47309C82.3751 9.06327 82.5376 10.7914 82.8481 12.3688C83.1594 13.9506 83.6253 15.4086 84.0119 16.4688C84.2055 16.9996 84.3799 17.4327 84.5064 17.734C84.5696 17.8847 84.6209 18.0026 84.6567 18.0833C84.6745 18.1237 84.6885 18.1548 84.6982 18.1761L84.7094 18.2007L84.7125 18.2074L84.7133 18.2093L84.7136 18.2099C84.7137 18.2101 84.7138 18.2102 85.1674 18L84.7138 18.2102L84.8481 18.5H85.1674H101.975H102.305Z" stroke="#53320B"/>
</g>
<path d="M83.0101 38.193C83.2869 37.5025 84.0103 37.0255 84.6784 37.3451C85.2454 37.6164 84.5031 42.2244 83.409 45.5302C83.3081 45.835 82.9985 46.0175 82.6817 45.9678C82.3502 45.9157 82.1121 45.6237 82.1264 45.2888C82.2609 42.1434 82.3408 39.8624 83.0101 38.193Z" fill="#53320B"/>
<path d="M102.392 37.487C102.427 36.7444 102.946 36.0489 103.684 36.1637C104.315 36.262 105.172 41.2696 105.245 45.0195C105.252 45.3398 105.018 45.6098 104.702 45.6596C104.371 45.7115 104.052 45.5063 103.96 45.1843C103.006 41.8409 102.298 39.4388 102.392 37.487Z" fill="#53320B"/>
<path d="M110.577 59.1019C110.767 58.5171 111.321 57.9345 111.773 58.3458C112.198 58.7325 110.822 67.0409 109.403 72.7926C109.344 73.0331 109.109 73.1869 108.865 73.1485C108.615 73.1093 108.442 72.8808 108.47 72.6299C109.149 66.4467 109.576 62.1939 110.577 59.1019Z" fill="#53320B"/>
<path d="M74.5772 41.1019C74.7665 40.5171 75.3207 39.9345 75.773 40.3458C76.1983 40.7325 74.8217 49.0409 73.4033 54.7926C73.344 55.0331 73.1094 55.1869 72.8649 55.1485C72.6154 55.1093 72.442 54.8808 72.4696 54.6299C73.1485 48.4467 73.576 44.1939 74.5772 41.1019Z" fill="#53320B"/>
<path d="M76.5772 59.1019C76.7665 58.5171 77.3207 57.9345 77.773 58.3458C78.1983 58.7325 76.8217 67.0409 75.4033 72.7926C75.344 73.0331 75.1094 73.1869 74.8649 73.1485C74.6154 73.1093 74.442 72.8808 74.4696 72.6299C75.1485 66.4467 75.576 62.1939 76.5772 59.1019Z" fill="#53320B"/>
<path d="M85 69C79.4772 69 75 64.5228 75 59V41C75 35.4772 79.4772 31 85 31L104 31C109.523 31 114 35.4772 114 41V59C114 64.5228 109.523 69 104 69H85Z" fill="#F77E7E"/>
<path d="M37.5772 41.1019C37.7665 40.5171 38.3207 39.9345 38.773 40.3458C39.1983 40.7325 37.8217 49.0409 36.4033 54.7926C36.344 55.0331 36.1094 55.1869 35.8649 55.1485C35.6154 55.1093 35.442 54.8808 35.4696 54.6299C36.1485 48.4467 36.576 44.1939 37.5772 41.1019Z" fill="#53320B"/>
<path d="M39.5772 59.1019C39.7665 58.5171 40.3207 57.9345 40.773 58.3458C41.1983 58.7325 39.8217 67.0409 38.4033 72.7926C38.344 73.0331 38.1094 73.1869 37.8649 73.1485C37.6154 73.1093 37.442 72.8808 37.4696 72.6299C38.1485 66.4467 38.576 62.1939 39.5772 59.1019Z" fill="#53320B"/>
<path d="M73.5772 59.1019C73.7665 58.5171 74.3207 57.9345 74.773 58.3458C75.1983 58.7325 73.8217 67.0409 72.4033 72.7926C72.344 73.0331 72.1094 73.1869 71.8649 73.1485C71.6154 73.1093 71.442 72.8808 71.4696 72.6299C72.1485 66.4467 72.576 62.1939 73.5772 59.1019Z" fill="#53320B"/>
<path d="M69.2175 77.1058C69.2156 76.5034 69.5596 75.8211 70.1259 76.0359C70.6468 76.2335 71.8591 83.4653 72.2639 88.636C72.2833 88.8828 72.1094 89.1002 71.8646 89.1386C71.6142 89.178 71.3743 89.0152 71.3168 88.7681C70.1017 83.5401 69.2263 79.9314 69.2175 77.1058Z" fill="#53320B"/>
<path d="M45.5772 76.8882C45.7665 76.3034 46.3207 75.7209 46.773 76.1321C47.1983 76.5189 45.8217 84.8273 44.4033 90.579C44.344 90.8194 44.1094 90.9733 43.8649 90.9349C43.6154 90.8957 43.442 90.6671 43.4696 90.4163C44.1485 84.2331 44.576 79.9803 45.5772 76.8882Z" fill="#53320B"/>
<rect x="44" y="69" width="28" height="25" rx="10" fill="#C5B66B"/>
<g filter="url(#filter2_d_44_10415)">
<path d="M50.1674 78.748C55.0441 75.0194 62.4185 75.1491 66.9749 78.748C71.5313 82.3469 66.9749 93 66.9749 93H50.1674C50.1674 93 45.2907 82.4766 50.1674 78.748Z" fill="#78A369"/>
<path d="M67.3049 93.5L67.4347 93.1966L66.9749 93C67.4347 93.1966 67.4347 93.1965 67.4348 93.1963L67.435 93.1957L67.4359 93.1938L67.4387 93.1871L67.4491 93.1624C67.4581 93.1409 67.4711 93.1095 67.4878 93.0687C67.5211 92.9872 67.569 92.8682 67.628 92.716C67.746 92.4118 67.9088 91.9745 68.0894 91.4391C68.4503 90.3697 68.885 88.9012 69.1754 87.3136C69.4651 85.7303 69.6163 84.0022 69.3922 82.4229C69.1678 80.8417 68.5589 79.3619 67.2849 78.3556C62.5474 74.6138 54.9203 74.4847 49.8637 78.3508C48.5115 79.3847 47.8571 80.8773 47.6157 82.4731C47.3751 84.0633 47.5376 85.7914 47.8481 87.3688C48.1594 88.9506 48.6253 90.4086 49.0119 91.4688C49.2055 91.9996 49.3799 92.4327 49.5064 92.734C49.5696 92.8847 49.6209 93.0026 49.6567 93.0833C49.6745 93.1237 49.6885 93.1548 49.6982 93.1761L49.7094 93.2007L49.7125 93.2074L49.7133 93.2093L49.7136 93.2099C49.7137 93.2101 49.7138 93.2102 50.1674 93L49.7138 93.2102L49.8481 93.5H50.1674H66.9749H67.3049Z" stroke="#53320B"/>
</g>
<path d="M48.0101 92.193C48.2869 91.5025 49.0103 91.0255 49.6784 91.3451C50.2454 91.6164 49.5031 96.2244 48.409 99.5302C48.3081 99.835 47.9985 100.018 47.6817 99.9678C47.3502 99.9157 47.1121 99.6237 47.1264 99.2888C47.2609 96.1434 47.3408 93.8624 48.0101 92.193Z" fill="#53320B"/>
<path d="M67.3917 91.487C67.4274 90.7444 67.9457 90.0489 68.6836 90.1637C69.3151 90.262 70.1716 95.2696 70.2454 99.0195C70.2517 99.3398 70.0184 99.6098 69.7016 99.6596C69.3712 99.7115 69.052 99.5063 68.9601 99.1843C68.0058 95.8409 67.2981 93.4388 67.3917 91.487Z" fill="#53320B"/>
<path d="M27.2175 77.1058C27.2156 76.5034 27.5596 75.8211 28.1259 76.0359V76.0359C28.6468 76.2335 29.8591 83.4653 30.2639 88.636C30.2833 88.8828 30.1094 89.1002 29.8646 89.1386V89.1386C29.6142 89.178 29.3743 89.0152 29.3168 88.7681C28.1017 83.5401 27.2263 79.9314 27.2175 77.1058Z" fill="#53320B"/>
<path d="M3.57717 76.8882C3.76651 76.3034 4.32069 75.7209 4.77297 76.1321V76.1321C5.1983 76.5189 3.82168 84.8273 2.40329 90.579C2.34399 90.8194 2.10938 90.9733 1.86488 90.9349V90.9349C1.61544 90.8957 1.44203 90.6671 1.46958 90.4163C2.14851 84.2331 2.57604 79.9803 3.57717 76.8882Z" fill="#53320B"/>
<rect x="2" y="69" width="28" height="25" rx="10" fill="#C5B66B"/>
<g filter="url(#filter3_d_44_10415)">
<path d="M8.16742 78.748C13.0441 75.0194 20.4185 75.1491 24.9749 78.748C29.5313 82.3469 24.9749 93 24.9749 93H8.16742C8.16742 93 3.29072 82.4766 8.16742 78.748Z" fill="#78A369"/>
<path d="M25.3049 93.5L25.4347 93.1966L24.9749 93C25.4347 93.1966 25.4347 93.1965 25.4348 93.1963L25.435 93.1957L25.4359 93.1938L25.4387 93.1871L25.4491 93.1624C25.4581 93.1409 25.4711 93.1095 25.4878 93.0687C25.5211 92.9872 25.569 92.8682 25.628 92.716C25.746 92.4118 25.9088 91.9745 26.0894 91.4391C26.4503 90.3697 26.885 88.9012 27.1754 87.3136C27.4651 85.7303 27.6163 84.0022 27.3922 82.4229C27.1678 80.8417 26.5589 79.3619 25.2849 78.3556C20.5474 74.6138 12.9203 74.4847 7.86373 78.3508C6.51147 79.3847 5.85713 80.8773 5.61569 82.4731C5.3751 84.0633 5.53758 85.7914 5.84807 87.3688C6.15943 88.9506 6.62531 90.4086 7.01189 91.4688C7.20548 91.9996 7.37991 92.4327 7.50636 92.734C7.5696 92.8847 7.6209 93.0026 7.65665 93.0833C7.67453 93.1237 7.68853 93.1548 7.69819 93.1761L7.70939 93.2007L7.71245 93.2074L7.71333 93.2093L7.71361 93.2099C7.7137 93.2101 7.71377 93.2102 8.16742 93L7.71377 93.2102L7.84805 93.5H8.16742H24.9749H25.3049Z" stroke="#53320B"/>
</g>
<path d="M6.01007 92.193C6.28689 91.5025 7.01031 91.0255 7.67844 91.3451V91.3451C8.24541 91.6164 7.50312 96.2244 6.40904 99.5302C6.30814 99.835 5.99847 100.018 5.68168 99.9678V99.9678C5.35022 99.9157 5.1121 99.6237 5.12642 99.2888C5.26089 96.1434 5.34083 93.8624 6.01007 92.193Z" fill="#53320B"/>
<path d="M25.3917 91.487C25.4274 90.7444 25.9457 90.0489 26.6836 90.1637V90.1637C27.315 90.262 28.1716 95.2696 28.2454 99.0195C28.2517 99.3398 28.0184 99.6098 27.7016 99.6596V99.6596C27.3712 99.7115 27.052 99.5063 26.9601 99.1843C26.0058 95.8409 25.2981 93.4388 25.3917 91.487Z" fill="#53320B"/>
<path d="M67.2175 23.1058C67.2156 22.5034 67.5596 21.8211 68.1259 22.0359C68.6468 22.2335 69.8591 29.4653 70.2639 34.636C70.2833 34.8828 70.1094 35.1002 69.8646 35.1386C69.6142 35.178 69.3743 35.0152 69.3168 34.7681C68.1017 29.5401 67.2263 25.9314 67.2175 23.1058Z" fill="#53320B"/>
<path d="M43.5772 22.8882C43.7665 22.3034 44.3207 21.7209 44.773 22.1321C45.1983 22.5189 43.8217 30.8273 42.4033 36.579C42.344 36.8194 42.1094 36.9733 41.8649 36.9349C41.6154 36.8957 41.442 36.6671 41.4696 36.4163C42.1485 30.2331 42.576 25.9803 43.5772 22.8882Z" fill="#53320B"/>
<rect x="42" y="15" width="28" height="25" rx="10" fill="#C5B66B"/>
<g filter="url(#filter4_d_44_10415)">
<path d="M48.1674 3.74802C53.0441 0.0194235 60.4185 0.149138 64.9749 3.74802C69.5313 7.3469 64.9749 18 64.9749 18H48.1674C48.1674 18 43.2907 7.47661 48.1674 3.74802Z" fill="#78A369"/>
<path d="M65.3049 18.5L65.4347 18.1966L64.9749 18C65.4347 18.1966 65.4347 18.1965 65.4348 18.1963L65.435 18.1957L65.4359 18.1938L65.4387 18.1871L65.4491 18.1624C65.4581 18.1409 65.4711 18.1095 65.4878 18.0687C65.5211 17.9872 65.569 17.8682 65.628 17.716C65.746 17.4118 65.9088 16.9745 66.0894 16.4391C66.4503 15.3697 66.885 13.9012 67.1754 12.3136C67.4651 10.7303 67.6163 9.00215 67.3922 7.42291C67.1678 5.84173 66.5589 4.36193 65.2849 3.35565C60.5474 -0.386232 52.9203 -0.51533 47.8637 3.35081C46.5115 4.38471 45.8571 5.87727 45.6157 7.47309C45.3751 9.06327 45.5376 10.7914 45.8481 12.3688C46.1594 13.9506 46.6253 15.4086 47.0119 16.4688C47.2055 16.9996 47.3799 17.4327 47.5064 17.734C47.5696 17.8847 47.6209 18.0026 47.6567 18.0833C47.6745 18.1237 47.6885 18.1548 47.6982 18.1761L47.7094 18.2007L47.7125 18.2074L47.7133 18.2093L47.7136 18.2099C47.7137 18.2101 47.7138 18.2102 48.1674 18L47.7138 18.2102L47.8481 18.5H48.1674H64.9749H65.3049Z" stroke="#53320B"/>
</g>
<path d="M46.0101 38.193C46.2869 37.5025 47.0103 37.0255 47.6784 37.3451C48.2454 37.6164 47.5031 42.2244 46.409 45.5302C46.3081 45.835 45.9985 46.0175 45.6817 45.9678C45.3502 45.9157 45.1121 45.6237 45.1264 45.2888C45.2609 42.1434 45.3408 39.8624 46.0101 38.193Z" fill="#53320B"/>
<path d="M65.3917 37.487C65.4274 36.7444 65.9457 36.0489 66.6836 36.1637C67.3151 36.262 68.1716 41.2696 68.2454 45.0195C68.2517 45.3398 68.0184 45.6098 67.7016 45.6596C67.3712 45.7115 67.052 45.5063 66.9601 45.1843C66.0058 41.8409 65.2981 39.4388 65.3917 37.487Z" fill="#53320B"/>
<path d="M26.2175 23.1058C26.2156 22.5034 26.5596 21.8211 27.1259 22.0359V22.0359C27.6468 22.2335 28.8591 29.4653 29.2639 34.636C29.2833 34.8828 29.1094 35.1002 28.8646 35.1386V35.1386C28.6142 35.178 28.3743 35.0152 28.3168 34.7681C27.1017 29.5401 26.2263 25.9314 26.2175 23.1058Z" fill="#53320B"/>
<path d="M2.57717 22.8882C2.76651 22.3034 3.32069 21.7209 3.77297 22.1321V22.1321C4.1983 22.5189 2.82168 30.8273 1.40329 36.579C1.34399 36.8194 1.10938 36.9733 0.864883 36.9349V36.9349C0.615436 36.8957 0.442033 36.6671 0.469579 36.4163C1.14851 30.2331 1.57604 25.9803 2.57717 22.8882Z" fill="#53320B"/>
<rect x="1" y="15" width="28" height="25" rx="10" fill="#C5B66B"/>
<g filter="url(#filter5_d_44_10415)">
<path d="M7.16742 3.74802C12.0441 0.0194235 19.4185 0.149138 23.9749 3.74802C28.5313 7.3469 23.9749 18 23.9749 18H7.16742C7.16742 18 2.29072 7.47661 7.16742 3.74802Z" fill="#78A369"/>
<path d="M24.3049 18.5L24.4347 18.1966L23.9749 18C24.4347 18.1966 24.4347 18.1965 24.4348 18.1963L24.435 18.1957L24.4359 18.1938L24.4387 18.1871L24.4491 18.1624C24.4581 18.1409 24.4711 18.1095 24.4878 18.0687C24.5211 17.9872 24.569 17.8682 24.628 17.716C24.746 17.4118 24.9088 16.9745 25.0894 16.4391C25.4503 15.3697 25.885 13.9012 26.1754 12.3136C26.4651 10.7303 26.6163 9.00215 26.3922 7.42291C26.1678 5.84173 25.5589 4.36193 24.2849 3.35565C19.5474 -0.386232 11.9203 -0.51533 6.86373 3.35081C5.51147 4.38471 4.85713 5.87727 4.61569 7.47309C4.3751 9.06327 4.53758 10.7914 4.84807 12.3688C5.15943 13.9506 5.62531 15.4086 6.01189 16.4688C6.20548 16.9996 6.37991 17.4327 6.50636 17.734C6.5696 17.8847 6.6209 18.0026 6.65665 18.0833C6.67453 18.1237 6.68853 18.1548 6.69819 18.1761L6.70939 18.2007L6.71245 18.2074L6.71333 18.2093L6.71361 18.2099C6.7137 18.2101 6.71377 18.2102 7.16742 18L6.71377 18.2102L6.84805 18.5H7.16742H23.9749H24.3049Z" stroke="#53320B"/>
</g>
<path d="M5.01007 38.193C5.28689 37.5025 6.01031 37.0255 6.67844 37.3451V37.3451C7.24541 37.6164 6.50312 42.2244 5.40904 45.5302C5.30814 45.835 4.99847 46.0175 4.68168 45.9678V45.9678C4.35022 45.9157 4.1121 45.6237 4.12642 45.2888C4.26089 42.1434 4.34083 39.8624 5.01007 38.193Z" fill="#53320B"/>
<path d="M24.3917 37.487C24.4274 36.7444 24.9457 36.0489 25.6836 36.1637V36.1637C26.315 36.262 27.1716 41.2696 27.2454 45.0195C27.2517 45.3398 27.0184 45.6098 26.7016 45.6596V45.6596C26.3712 45.7115 26.052 45.5063 25.9601 45.1843C25.0058 41.8409 24.2981 39.4388 24.3917 37.487Z" fill="#53320B"/>
<path d="M73.5772 59.1019C73.7665 58.5171 74.3207 57.9345 74.773 58.3458C75.1983 58.7325 73.8217 67.0409 72.4033 72.7926C72.344 73.0331 72.1094 73.1869 71.8649 73.1485C71.6154 73.1093 71.442 72.8808 71.4696 72.6299C72.1485 66.4467 72.576 62.1939 73.5772 59.1019Z" fill="#53320B"/>
<path d="M37.5772 41.1019C37.7665 40.5171 38.3207 39.9345 38.773 40.3458C39.1983 40.7325 37.8217 49.0409 36.4033 54.7926C36.344 55.0331 36.1094 55.1869 35.8649 55.1485C35.6154 55.1093 35.442 54.8808 35.4696 54.6299C36.1485 48.4467 36.576 44.1939 37.5772 41.1019Z" fill="#53320B"/>
<path d="M39.5772 59.1019C39.7665 58.5171 40.3207 57.9345 40.773 58.3458C41.1983 58.7325 39.8217 67.0409 38.4033 72.7926C38.344 73.0331 38.1094 73.1869 37.8649 73.1485C37.6154 73.1093 37.442 72.8808 37.4696 72.6299C38.1485 66.4467 38.576 62.1939 39.5772 59.1019Z" fill="#53320B"/>
<path d="M48 69C42.4772 69 38 64.5228 38 59L38 41C38 35.4772 42.4772 31 48 31L67 31C72.5228 31 77 35.4772 77 41V59C77 64.5228 72.5228 69 67 69H48Z" fill="#F77E7E"/>
<path d="M10 68C4.47715 68 0 63.5228 0 58L0 40C0 34.4772 4.47715 30 10 30L29 30C34.5228 30 39 34.4772 39 40L39 58C39 63.5228 34.5228 68 29 68H10Z" fill="#F77E7E"/>
<defs>
<filter id="filter0_d_44_10415" x="80" y="75" width="31" height="27" filterUnits="userSpaceOnUse" color-interpolation-filters="sRGB">
<feFlood flood-opacity="0" result="BackgroundImageFix"/>
<feColorMatrix in="SourceAlpha" type="matrix" values="0 0 0 0 0 0 0 0 0 0 0 0 0 0 0 0 0 0 127 0" result="hardAlpha"/>
<feOffset dy="4"/>
<feGaussianBlur stdDeviation="2"/>
<feComposite in2="hardAlpha" operator="out"/>
<feColorMatrix type="matrix" values="0 0 0 0 0 0 0 0 0 0 0 0 0 0 0 0 0 0 0.25 0"/>
<feBlend mode="normal" in2="BackgroundImageFix" result="effect1_dropShadow_44_10415"/>
<feBlend mode="normal" in="SourceGraphic" in2="effect1_dropShadow_44_10415" result="shape"/>
</filter>
<filter id="filter1_d_44_10415" x="78" y="0" width="31" height="27" filterUnits="userSpaceOnUse" color-interpolation-filters="sRGB">
<feFlood flood-opacity="0" result="BackgroundImageFix"/>
<feColorMatrix in="SourceAlpha" type="matrix" values="0 0 0 0 0 0 0 0 0 0 0 0 0 0 0 0 0 0 127 0" result="hardAlpha"/>
<feOffset dy="4"/>
<feGaussianBlur stdDeviation="2"/>
<feComposite in2="hardAlpha" operator="out"/>
<feColorMatrix type="matrix" values="0 0 0 0 0 0 0 0 0 0 0 0 0 0 0 0 0 0 0.25 0"/>
<feBlend mode="normal" in2="BackgroundImageFix" result="effect1_dropShadow_44_10415"/>
<feBlend mode="normal" in="SourceGraphic" in2="effect1_dropShadow_44_10415" result="shape"/>
</filter>
<filter id="filter2_d_44_10415" x="43" y="75" width="31" height="27" filterUnits="userSpaceOnUse" color-interpolation-filters="sRGB">
<feFlood flood-opacity="0" result="BackgroundImageFix"/>
<feColorMatrix in="SourceAlpha" type="matrix" values="0 0 0 0 0 0 0 0 0 0 0 0 0 0 0 0 0 0 127 0" result="hardAlpha"/>
<feOffset dy="4"/>
<feGaussianBlur stdDeviation="2"/>
<feComposite in2="hardAlpha" operator="out"/>
<feColorMatrix type="matrix" values="0 0 0 0 0 0 0 0 0 0 0 0 0 0 0 0 0 0 0.25 0"/>
<feBlend mode="normal" in2="BackgroundImageFix" result="effect1_dropShadow_44_10415"/>
<feBlend mode="normal" in="SourceGraphic" in2="effect1_dropShadow_44_10415" result="shape"/>
</filter>
<filter id="filter3_d_44_10415" x="1" y="75" width="31" height="27" filterUnits="userSpaceOnUse" color-interpolation-filters="sRGB">
<feFlood flood-opacity="0" result="BackgroundImageFix"/>
<feColorMatrix in="SourceAlpha" type="matrix" values="0 0 0 0 0 0 0 0 0 0 0 0 0 0 0 0 0 0 127 0" result="hardAlpha"/>
<feOffset dy="4"/>
<feGaussianBlur stdDeviation="2"/>
<feComposite in2="hardAlpha" operator="out"/>
<feColorMatrix type="matrix" values="0 0 0 0 0 0 0 0 0 0 0 0 0 0 0 0 0 0 0.25 0"/>
<feBlend mode="normal" in2="BackgroundImageFix" result="effect1_dropShadow_44_10415"/>
<feBlend mode="normal" in="SourceGraphic" in2="effect1_dropShadow_44_10415" result="shape"/>
</filter>
<filter id="filter4_d_44_10415" x="41" y="0" width="31" height="27" filterUnits="userSpaceOnUse" color-interpolation-filters="sRGB">
<feFlood flood-opacity="0" result="BackgroundImageFix"/>
<feColorMatrix in="SourceAlpha" type="matrix" values="0 0 0 0 0 0 0 0 0 0 0 0 0 0 0 0 0 0 127 0" result="hardAlpha"/>
<feOffset dy="4"/>
<feGaussianBlur stdDeviation="2"/>
<feComposite in2="hardAlpha" operator="out"/>
<feColorMatrix type="matrix" values="0 0 0 0 0 0 0 0 0 0 0 0 0 0 0 0 0 0 0.25 0"/>
<feBlend mode="normal" in2="BackgroundImageFix" result="effect1_dropShadow_44_10415"/>
<feBlend mode="normal" in="SourceGraphic" in2="effect1_dropShadow_44_10415" result="shape"/>
</filter>
<filter id="filter5_d_44_10415" x="0" y="0" width="31" height="27" filterUnits="userSpaceOnUse" color-interpolation-filters="sRGB">
<feFlood flood-opacity="0" result="BackgroundImageFix"/>
<feColorMatrix in="SourceAlpha" type="matrix" values="0 0 0 0 0 0 0 0 0 0 0 0 0 0 0 0 0 0 127 0" result="hardAlpha"/>
<feOffset dy="4"/>
<feGaussianBlur stdDeviation="2"/>
<feComposite in2="hardAlpha" operator="out"/>
<feColorMatrix type="matrix" values="0 0 0 0 0 0 0 0 0 0 0 0 0 0 0 0 0 0 0.25 0"/>
<feBlend mode="normal" in2="BackgroundImageFix" result="effect1_dropShadow_44_10415"/>
<feBlend mode="normal" in="SourceGraphic" in2="effect1_dropShadow_44_10415" result="shape"/>
</filter>
</defs>
</svg>
