<svg width="50" height="108" viewBox="0 0 50 108" fill="none" xmlns="http://www.w3.org/2000/svg">
<g filter="url(#filter0_d_44_12598)">
<path d="M6.57717 41.1019C6.76651 40.5171 7.32069 39.9345 7.77297 40.3458C8.1983 40.7325 6.82168 49.0409 5.40329 54.7926C5.34399 55.0331 5.10938 55.1869 4.86488 55.1485C4.61544 55.1093 4.44203 54.8808 4.46958 54.6299C5.14851 48.4467 5.57604 44.1939 6.57717 41.1019Z" fill="#53320B"/>
<path d="M8.57717 59.1019C8.76651 58.5171 9.32069 57.9345 9.77297 58.3458C10.1983 58.7325 8.82168 67.0409 7.40329 72.7926C7.34399 73.0331 7.10938 73.1869 6.86488 73.1485C6.61544 73.1093 6.44203 72.8808 6.46958 72.6299C7.14851 66.4467 7.57604 62.1939 8.57717 59.1019Z" fill="#53320B"/>
<path d="M42.5772 59.1019C42.7665 58.5171 43.3207 57.9345 43.773 58.3458C44.1983 58.7325 42.8217 67.0409 41.4033 72.7926C41.344 73.0331 41.1094 73.1869 40.8649 73.1485C40.6154 73.1093 40.442 72.8808 40.4696 72.6299C41.1485 66.4467 41.576 62.1939 42.5772 59.1019Z" fill="#53320B"/>
<path d="M38.2175 77.1058C38.2156 76.5034 38.5596 75.8211 39.1259 76.0359C39.6468 76.2335 40.8591 83.4653 41.2639 88.636C41.2833 88.8828 41.1094 89.1002 40.8646 89.1386C40.6142 89.178 40.3743 89.0152 40.3168 88.7681C39.1017 83.5401 38.2263 79.9314 38.2175 77.1058Z" fill="#53320B"/>
<path d="M14.5772 76.8882C14.7665 76.3034 15.3207 75.7209 15.773 76.1321C16.1983 76.5189 14.8217 84.8273 13.4033 90.579C13.344 90.8194 13.1094 90.9733 12.8649 90.9349C12.6154 90.8957 12.442 90.6671 12.4696 90.4163C13.1485 84.2331 13.576 79.9803 14.5772 76.8882Z" fill="#53320B"/>
<rect x="13" y="69" width="28" height="25" rx="10" fill="#C5B66B"/>
<g filter="url(#filter1_d_44_12598)">
<path d="M19.1674 78.748C24.0441 75.0194 31.4185 75.1491 35.9749 78.748C40.5313 82.3469 35.9749 93 35.9749 93H19.1674C19.1674 93 14.2907 82.4766 19.1674 78.748Z" fill="#78A369"/>
<path d="M36.3049 93.5L36.4347 93.1966L35.9749 93C36.4347 93.1966 36.4347 93.1965 36.4348 93.1963L36.435 93.1957L36.4359 93.1938L36.4387 93.1871L36.4491 93.1624C36.4581 93.1409 36.4711 93.1095 36.4878 93.0687C36.5211 92.9872 36.569 92.8682 36.628 92.716C36.746 92.4118 36.9088 91.9745 37.0894 91.4391C37.4503 90.3697 37.885 88.9012 38.1754 87.3136C38.4651 85.7303 38.6163 84.0022 38.3922 82.4229C38.1678 80.8417 37.5589 79.3619 36.2849 78.3556C31.5474 74.6138 23.9203 74.4847 18.8637 78.3508C17.5115 79.3847 16.8571 80.8773 16.6157 82.4731C16.3751 84.0633 16.5376 85.7914 16.8481 87.3688C17.1594 88.9506 17.6253 90.4086 18.0119 91.4688C18.2055 91.9996 18.3799 92.4327 18.5064 92.734C18.5696 92.8847 18.6209 93.0026 18.6567 93.0833C18.6745 93.1237 18.6885 93.1548 18.6982 93.1761L18.7094 93.2007L18.7125 93.2074L18.7133 93.2093L18.7136 93.2099C18.7137 93.2101 18.7138 93.2102 19.1674 93L18.7138 93.2102L18.8481 93.5H19.1674H35.9749H36.3049Z" stroke="#53320B"/>
</g>
<path d="M17.0101 92.193C17.2869 91.5025 18.0103 91.0255 18.6784 91.3451C19.2454 91.6164 18.5031 96.2244 17.409 99.5302C17.3081 99.835 16.9985 100.018 16.6817 99.9678C16.3502 99.9157 16.1121 99.6237 16.1264 99.2888C16.2609 96.1434 16.3408 93.8624 17.0101 92.193Z" fill="#53320B"/>
<path d="M36.3917 91.487C36.4274 90.7444 36.9457 90.0489 37.6836 90.1637C38.3151 90.262 39.1716 95.2696 39.2454 99.0195C39.2517 99.3398 39.0184 99.6098 38.7016 99.6596C38.3712 99.7115 38.052 99.5063 37.9601 99.1843C37.0058 95.8409 36.2981 93.4388 36.3917 91.487Z" fill="#53320B"/>
<path d="M36.2175 23.1058C36.2156 22.5034 36.5596 21.8211 37.1259 22.0359C37.6468 22.2335 38.8591 29.4653 39.2639 34.636C39.2833 34.8828 39.1094 35.1002 38.8646 35.1386C38.6142 35.178 38.3743 35.0152 38.3168 34.7681C37.1017 29.5401 36.2263 25.9314 36.2175 23.1058Z" fill="#53320B"/>
<path d="M12.5772 22.8882C12.7665 22.3034 13.3207 21.7209 13.773 22.1321C14.1983 22.5189 12.8217 30.8273 11.4033 36.579C11.344 36.8194 11.1094 36.9733 10.8649 36.9349C10.6154 36.8957 10.442 36.6671 10.4696 36.4163C11.1485 30.2331 11.576 25.9803 12.5772 22.8882Z" fill="#53320B"/>
<rect x="11" y="15" width="28" height="25" rx="10" fill="#C5B66B"/>
<g filter="url(#filter2_d_44_12598)">
<path d="M17.1674 3.74802C22.0441 0.0194235 29.4185 0.149138 33.9749 3.74802C38.5313 7.3469 33.9749 18 33.9749 18H17.1674C17.1674 18 12.2907 7.47661 17.1674 3.74802Z" fill="#78A369"/>
<path d="M34.3049 18.5L34.4347 18.1966L33.9749 18C34.4347 18.1966 34.4347 18.1965 34.4348 18.1963L34.435 18.1957L34.4359 18.1938L34.4387 18.1871L34.4491 18.1624C34.4581 18.1409 34.4711 18.1095 34.4878 18.0687C34.5211 17.9872 34.569 17.8682 34.628 17.716C34.746 17.4118 34.9088 16.9745 35.0894 16.4391C35.4503 15.3697 35.885 13.9012 36.1754 12.3136C36.4651 10.7303 36.6163 9.00215 36.3922 7.42291C36.1678 5.84173 35.5589 4.36193 34.2849 3.35565C29.5474 -0.386232 21.9203 -0.51533 16.8637 3.35081C15.5115 4.38471 14.8571 5.87727 14.6157 7.47309C14.3751 9.06327 14.5376 10.7914 14.8481 12.3688C15.1594 13.9506 15.6253 15.4086 16.0119 16.4688C16.2055 16.9996 16.3799 17.4327 16.5064 17.734C16.5696 17.8847 16.6209 18.0026 16.6567 18.0833C16.6745 18.1237 16.6885 18.1548 16.6982 18.1761L16.7094 18.2007L16.7125 18.2074L16.7133 18.2093L16.7136 18.2099C16.7137 18.2101 16.7138 18.2102 17.1674 18L16.7138 18.2102L16.8481 18.5H17.1674H33.9749H34.3049Z" stroke="#53320B"/>
</g>
<path d="M15.0101 38.193C15.2869 37.5025 16.0103 37.0255 16.6784 37.3451C17.2454 37.6164 16.5031 42.2244 15.409 45.5302C15.3081 45.835 14.9985 46.0175 14.6817 45.9678C14.3502 45.9157 14.1121 45.6237 14.1264 45.2888C14.2609 42.1434 14.3408 39.8624 15.0101 38.193Z" fill="#53320B"/>
<path d="M34.3917 37.487C34.4274 36.7444 34.9457 36.0489 35.6836 36.1637C36.3151 36.262 37.1716 41.2696 37.2454 45.0195C37.2517 45.3398 37.0184 45.6098 36.7016 45.6596C36.3712 45.7115 36.052 45.5063 35.9601 45.1843C35.0058 41.8409 34.2981 39.4388 34.3917 37.487Z" fill="#53320B"/>
<path d="M42.5772 59.1019C42.7665 58.5171 43.3207 57.9345 43.773 58.3458C44.1983 58.7325 42.8217 67.0409 41.4033 72.7926C41.344 73.0331 41.1094 73.1869 40.8649 73.1485C40.6154 73.1093 40.442 72.8808 40.4696 72.6299C41.1485 66.4467 41.576 62.1939 42.5772 59.1019Z" fill="#53320B"/>
<path d="M6.57717 41.1019C6.76651 40.5171 7.32069 39.9345 7.77297 40.3458C8.1983 40.7325 6.82168 49.0409 5.40329 54.7926C5.34399 55.0331 5.10938 55.1869 4.86488 55.1485C4.61544 55.1093 4.44203 54.8808 4.46958 54.6299C5.14851 48.4467 5.57604 44.1939 6.57717 41.1019Z" fill="#53320B"/>
<path d="M8.57717 59.1019C8.76651 58.5171 9.32069 57.9345 9.77297 58.3458C10.1983 58.7325 8.82168 67.0409 7.40329 72.7926C7.34399 73.0331 7.10938 73.1869 6.86488 73.1485C6.61544 73.1093 6.44203 72.8808 6.46958 72.6299C7.14851 66.4467 7.57604 62.1939 8.57717 59.1019Z" fill="#53320B"/>
<path d="M17 69C11.4772 69 7 64.5228 7 59L7 41C7 35.4772 11.4772 31 17 31L36 31C41.5228 31 46 35.4772 46 41L46 59C46 64.5228 41.5228 69 36 69H17Z" fill="#F77E7E"/>
</g>
<defs>
<filter id="filter0_d_44_12598" x="0.466797" y="0" width="49.5332" height="107.976" filterUnits="userSpaceOnUse" color-interpolation-filters="sRGB">
<feFlood flood-opacity="0" result="BackgroundImageFix"/>
<feColorMatrix in="SourceAlpha" type="matrix" values="0 0 0 0 0 0 0 0 0 0 0 0 0 0 0 0 0 0 127 0" result="hardAlpha"/>
<feOffset dy="4"/>
<feGaussianBlur stdDeviation="2"/>
<feComposite in2="hardAlpha" operator="out"/>
<feColorMatrix type="matrix" values="0 0 0 0 0 0 0 0 0 0 0 0 0 0 0 0 0 0 0.25 0"/>
<feBlend mode="normal" in2="BackgroundImageFix" result="effect1_dropShadow_44_12598"/>
<feBlend mode="normal" in="SourceGraphic" in2="effect1_dropShadow_44_12598" result="shape"/>
</filter>
<filter id="filter1_d_44_12598" x="12" y="75" width="31" height="27" filterUnits="userSpaceOnUse" color-interpolation-filters="sRGB">
<feFlood flood-opacity="0" result="BackgroundImageFix"/>
<feColorMatrix in="SourceAlpha" type="matrix" values="0 0 0 0 0 0 0 0 0 0 0 0 0 0 0 0 0 0 127 0" result="hardAlpha"/>
<feOffset dy="4"/>
<feGaussianBlur stdDeviation="2"/>
<feComposite in2="hardAlpha" operator="out"/>
<feColorMatrix type="matrix" values="0 0 0 0 0 0 0 0 0 0 0 0 0 0 0 0 0 0 0.25 0"/>
<feBlend mode="normal" in2="BackgroundImageFix" result="effect1_dropShadow_44_12598"/>
<feBlend mode="normal" in="SourceGraphic" in2="effect1_dropShadow_44_12598" result="shape"/>
</filter>
<filter id="filter2_d_44_12598" x="10" y="0" width="31" height="27" filterUnits="userSpaceOnUse" color-interpolation-filters="sRGB">
<feFlood flood-opacity="0" result="BackgroundImageFix"/>
<feColorMatrix in="SourceAlpha" type="matrix" values="0 0 0 0 0 0 0 0 0 0 0 0 0 0 0 0 0 0 127 0" result="hardAlpha"/>
<feOffset dy="4"/>
<feGaussianBlur stdDeviation="2"/>
<feComposite in2="hardAlpha" operator="out"/>
<feColorMatrix type="matrix" values="0 0 0 0 0 0 0 0 0 0 0 0 0 0 0 0 0 0 0.25 0"/>
<feBlend mode="normal" in2="BackgroundImageFix" result="effect1_dropShadow_44_12598"/>
<feBlend mode="normal" in="SourceGraphic" in2="effect1_dropShadow_44_12598" result="shape"/>
</filter>
</defs>
</svg>
