<svg width="152" height="102" viewBox="0 0 152 102" fill="none" xmlns="http://www.w3.org/2000/svg">
<path d="M112.577 41.1019C112.767 40.5171 113.321 39.9345 113.773 40.3458C114.198 40.7325 112.822 49.0409 111.403 54.7926C111.344 55.0331 111.109 55.1869 110.865 55.1485C110.615 55.1093 110.442 54.8808 110.47 54.6299C111.149 48.4467 111.576 44.1939 112.577 41.1019Z" fill="#53320B"/>
<path d="M114.577 59.1019C114.767 58.5171 115.321 57.9345 115.773 58.3458C116.198 58.7325 114.822 67.0409 113.403 72.7926C113.344 73.0331 113.109 73.1869 112.865 73.1485C112.615 73.1093 112.442 72.8808 112.47 72.6299C113.149 66.4467 113.576 62.1939 114.577 59.1019Z" fill="#53320B"/>
<path d="M148.577 59.1019C148.767 58.5171 149.321 57.9345 149.773 58.3458C150.198 58.7325 148.822 67.0409 147.403 72.7926C147.344 73.0331 147.109 73.1869 146.865 73.1485C146.615 73.1093 146.442 72.8808 146.47 72.6299C147.149 66.4467 147.576 62.1939 148.577 59.1019Z" fill="#53320B"/>
<path d="M144.217 77.1058C144.216 76.5034 144.56 75.8211 145.126 76.0359C145.647 76.2335 146.859 83.4653 147.264 88.636C147.283 88.8828 147.109 89.1002 146.865 89.1386C146.614 89.178 146.374 89.0152 146.317 88.7681C145.102 83.5401 144.226 79.9314 144.217 77.1058Z" fill="#53320B"/>
<path d="M120.577 76.8882C120.767 76.3034 121.321 75.7209 121.773 76.1321C122.198 76.5189 120.822 84.8273 119.403 90.579C119.344 90.8194 119.109 90.9733 118.865 90.9349C118.615 90.8957 118.442 90.6671 118.47 90.4163C119.149 84.2331 119.576 79.9803 120.577 76.8882Z" fill="#53320B"/>
<rect x="119" y="69" width="28" height="25" rx="10" fill="#C5B66B"/>
<g filter="url(#filter0_d_44_10415)">
<path d="M125.167 78.748C130.044 75.0194 137.419 75.1491 141.975 78.748C146.531 82.3469 141.975 93 141.975 93H125.167C125.167 93 120.291 82.4766 125.167 78.748Z" fill="#78A369"/>
<path d="M142.305 93.5L142.435 93.1966L141.975 93C142.435 93.1966 142.435 93.1965 142.435 93.1963L142.435 93.1957L142.436 93.1938L142.439 93.1871L142.449 93.1624C142.458 93.1409 142.471 93.1095 142.488 93.0687C142.521 92.9872 142.569 92.8682 142.628 92.716C142.746 92.4118 142.909 91.9745 143.089 91.4391C143.45 90.3697 143.885 88.9012 144.175 87.3136C144.465 85.7303 144.616 84.0022 144.392 82.4229C144.168 80.8417 143.559 79.3619 142.285 78.3556C137.547 74.6138 129.92 74.4847 124.864 78.3508C123.511 79.3847 122.857 80.8773 122.616 82.4731C122.375 84.0633 122.538 85.7914 122.848 87.3688C123.159 88.9506 123.625 90.4086 124.012 91.4688C124.205 91.9996 124.38 92.4327 124.506 92.734C124.57 92.8847 124.621 93.0026 124.657 93.0833C124.675 93.1237 124.689 93.1548 124.698 93.1761L124.709 93.2007L124.712 93.2074L124.713 93.2093L124.714 93.2099C124.714 93.2101 124.714 93.2102 125.167 93L124.714 93.2102L124.848 93.5H125.167H141.975H142.305Z" stroke="#53320B"/>
</g>
<path d="M123.01 92.193C123.287 91.5025 124.01 91.0255 124.678 91.3451C125.245 91.6164 124.503 96.2244 123.409 99.5302C123.308 99.835 122.998 100.018 122.682 99.9678C122.35 99.9157 122.112 99.6237 122.126 99.2888C122.261 96.1434 122.341 93.8624 123.01 92.193Z" fill="#53320B"/>
<path d="M142.392 91.487C142.427 90.7444 142.946 90.0489 143.684 90.1637C144.315 90.262 145.172 95.2696 145.245 99.0195C145.252 99.3398 145.018 99.6098 144.702 99.6596C144.371 99.7115 144.052 99.5063 143.96 99.1843C143.006 95.8409 142.298 93.4388 142.392 91.487Z" fill="#53320B"/>
<path d="M142.217 23.1058C142.216 22.5034 142.56 21.8211 143.126 22.0359C143.647 22.2335 144.859 29.4653 145.264 34.636C145.283 34.8828 145.109 35.1002 144.865 35.1386C144.614 35.178 144.374 35.0152 144.317 34.7681C143.102 29.5401 142.226 25.9314 142.217 23.1058Z" fill="#53320B"/>
<path d="M118.577 22.8882C118.767 22.3034 119.321 21.7209 119.773 22.1321C120.198 22.5189 118.822 30.8273 117.403 36.579C117.344 36.8194 117.109 36.9733 116.865 36.9349C116.615 36.8957 116.442 36.6671 116.47 36.4163C117.149 30.2331 117.576 25.9803 118.577 22.8882Z" fill="#53320B"/>
<rect x="117" y="15" width="28" height="25" rx="10" fill="#C5B66B"/>
<g filter="url(#filter1_d_44_10415)">
<path d="M123.167 3.74802C128.044 0.0194235 135.419 0.149138 139.975 3.74802C144.531 7.3469 139.975 18 139.975 18H123.167C123.167 18 118.291 7.47661 123.167 3.74802Z" fill="#78A369"/>
<path d="M140.305 18.5L140.435 18.1966L139.975 18C140.435 18.1966 140.435 18.1965 140.435 18.1963L140.435 18.1957L140.436 18.1938L140.439 18.1871L140.449 18.1624C140.458 18.1409 140.471 18.1095 140.488 18.0687C140.521 17.9872 140.569 17.8682 140.628 17.716C140.746 17.4118 140.909 16.9745 141.089 16.4391C141.45 15.3697 141.885 13.9012 142.175 12.3136C142.465 10.7303 142.616 9.00215 142.392 7.42291C142.168 5.84173 141.559 4.36193 140.285 3.35565C135.547 -0.386232 127.92 -0.51533 122.864 3.35081C121.511 4.38471 120.857 5.87727 120.616 7.47309C120.375 9.06327 120.538 10.7914 120.848 12.3688C121.159 13.9506 121.625 15.4086 122.012 16.4688C122.205 16.9996 122.38 17.4327 122.506 17.734C122.57 17.8847 122.621 18.0026 122.657 18.0833C122.675 18.1237 122.689 18.1548 122.698 18.1761L122.709 18.2007L122.712 18.2074L122.713 18.2093L122.714 18.2099C122.714 18.2101 122.714 18.2102 123.167 18L122.714 18.2102L122.848 18.5H123.167H139.975H140.305Z" stroke="#53320B"/>
</g>
<path d="M121.01 38.193C121.287 37.5025 122.01 37.0255 122.678 37.3451C123.245 37.6164 122.503 42.2244 121.409 45.5302C121.308 45.835 120.998 46.0175 120.682 45.9678C120.35 45.9157 120.112 45.6237 120.126 45.2888C120.261 42.1434 120.341 39.8624 121.01 38.193Z" fill="#53320B"/>
<path d="M140.392 37.487C140.427 36.7444 140.946 36.0489 141.684 36.1637C142.315 36.262 143.172 41.2696 143.245 45.0195C143.252 45.3398 143.018 45.6098 142.702 45.6596C142.371 45.7115 142.052 45.5063 141.96 45.1843C141.006 41.8409 140.298 39.4388 140.392 37.487Z" fill="#53320B"/>
<path d="M148.577 59.1019C148.767 58.5171 149.321 57.9345 149.773 58.3458C150.198 58.7325 148.822 67.0409 147.403 72.7926C147.344 73.0331 147.109 73.1869 146.865 73.1485C146.615 73.1093 146.442 72.8808 146.47 72.6299C147.149 66.4467 147.576 62.1939 148.577 59.1019Z" fill="#53320B"/>
<path d="M112.577 41.1019C112.767 40.5171 113.321 39.9345 113.773 40.3458C114.198 40.7325 112.822 49.0409 111.403 54.7926C111.344 55.0331 111.109 55.1869 110.865 55.1485C110.615 55.1093 110.442 54.8808 110.47 54.6299C111.149 48.4467 111.576 44.1939 112.577 41.1019Z" fill="#53320B"/>
<path d="M114.577 59.1019C114.767 58.5171 115.321 57.9345 115.773 58.3458C116.198 58.7325 114.822 67.0409 113.403 72.7926C113.344 73.0331 113.109 73.1869 112.865 73.1485C112.615 73.1093 112.442 72.8808 112.47 72.6299C113.149 66.4467 113.576 62.1939 114.577 59.1019Z" fill="#53320B"/>
<path d="M123 69C117.477 69 113 64.5228 113 59V41C113 35.4772 117.477 31 123 31L142 31C147.523 31 152 35.4772 152 41V59C152 64.5228 147.523 69 142 69H123Z" fill="#F77E7E"/>
<path d="M75.5772 41.1019C75.7665 40.5171 76.3207 39.9345 76.773 40.3458C77.1983 40.7325 75.8217 49.0409 74.4033 54.7926C74.344 55.0331 74.1094 55.1869 73.8649 55.1485C73.6154 55.1093 73.442 54.8808 73.4696 54.6299C74.1485 48.4467 74.576 44.1939 75.5772 41.1019Z" fill="#53320B"/>
<path d="M77.5772 59.1019C77.7665 58.5171 78.3207 57.9345 78.773 58.3458C79.1983 58.7325 77.8217 67.0409 76.4033 72.7926C76.344 73.0331 76.1094 73.1869 75.8649 73.1485C75.6154 73.1093 75.442 72.8808 75.4696 72.6299C76.1485 66.4467 76.576 62.1939 77.5772 59.1019Z" fill="#53320B"/>
<path d="M111.577 59.1019C111.767 58.5171 112.321 57.9345 112.773 58.3458C113.198 58.7325 111.822 67.0409 110.403 72.7926C110.344 73.0331 110.109 73.1869 109.865 73.1485C109.615 73.1093 109.442 72.8808 109.47 72.6299C110.149 66.4467 110.576 62.1939 111.577 59.1019Z" fill="#53320B"/>
<path d="M107.217 77.1058C107.216 76.5034 107.56 75.8211 108.126 76.0359C108.647 76.2335 109.859 83.4653 110.264 88.636C110.283 88.8828 110.109 89.1002 109.865 89.1386C109.614 89.178 109.374 89.0152 109.317 88.7681C108.102 83.5401 107.226 79.9314 107.217 77.1058Z" fill="#53320B"/>
<path d="M83.5772 76.8882C83.7665 76.3034 84.3207 75.7209 84.773 76.1321C85.1983 76.5189 83.8217 84.8273 82.4033 90.579C82.344 90.8194 82.1094 90.9733 81.8649 90.9349C81.6154 90.8957 81.442 90.6671 81.4696 90.4163C82.1485 84.2331 82.576 79.9803 83.5772 76.8882Z" fill="#53320B"/>
<rect x="82" y="69" width="28" height="25" rx="10" fill="#C5B66B"/>
<g filter="url(#filter2_d_44_10415)">
<path d="M88.1674 78.748C93.0441 75.0194 100.419 75.1491 104.975 78.748C109.531 82.3469 104.975 93 104.975 93H88.1674C88.1674 93 83.2907 82.4766 88.1674 78.748Z" fill="#78A369"/>
<path d="M105.305 93.5L105.435 93.1966L104.975 93C105.435 93.1966 105.435 93.1965 105.435 93.1963L105.435 93.1957L105.436 93.1938L105.439 93.1871L105.449 93.1624C105.458 93.1409 105.471 93.1095 105.488 93.0687C105.521 92.9872 105.569 92.8682 105.628 92.716C105.746 92.4118 105.909 91.9745 106.089 91.4391C106.45 90.3697 106.885 88.9012 107.175 87.3136C107.465 85.7303 107.616 84.0022 107.392 82.4229C107.168 80.8417 106.559 79.3619 105.285 78.3556C100.547 74.6138 92.9203 74.4847 87.8637 78.3508C86.5115 79.3847 85.8571 80.8773 85.6157 82.4731C85.3751 84.0633 85.5376 85.7914 85.8481 87.3688C86.1594 88.9506 86.6253 90.4086 87.0119 91.4688C87.2055 91.9996 87.3799 92.4327 87.5064 92.734C87.5696 92.8847 87.6209 93.0026 87.6567 93.0833C87.6745 93.1237 87.6885 93.1548 87.6982 93.1761L87.7094 93.2007L87.7125 93.2074L87.7133 93.2093L87.7136 93.2099C87.7137 93.2101 87.7138 93.2102 88.1674 93L87.7138 93.2102L87.8481 93.5H88.1674H104.975H105.305Z" stroke="#53320B"/>
</g>
<path d="M86.0101 92.193C86.2869 91.5025 87.0103 91.0255 87.6784 91.3451C88.2454 91.6164 87.5031 96.2244 86.409 99.5302C86.3081 99.835 85.9985 100.018 85.6817 99.9678C85.3502 99.9157 85.1121 99.6237 85.1264 99.2888C85.2609 96.1434 85.3408 93.8624 86.0101 92.193Z" fill="#53320B"/>
<path d="M105.392 91.487C105.427 90.7444 105.946 90.0489 106.684 90.1637C107.315 90.262 108.172 95.2696 108.245 99.0195C108.252 99.3398 108.018 99.6098 107.702 99.6596C107.371 99.7115 107.052 99.5063 106.96 99.1843C106.006 95.8409 105.298 93.4388 105.392 91.487Z" fill="#53320B"/>
<path d="M68.2175 76.1058C68.2156 75.5034 68.5596 74.8211 69.1259 75.0359V75.0359C69.6468 75.2335 70.8591 82.4653 71.2639 87.636C71.2833 87.8828 71.1094 88.1002 70.8646 88.1386V88.1386C70.6142 88.178 70.3743 88.0152 70.3168 87.7681C69.1017 82.5401 68.2263 78.9314 68.2175 76.1058Z" fill="#53320B"/>
<path d="M44.5772 75.8882C44.7665 75.3034 45.3207 74.7209 45.773 75.1321V75.1321C46.1983 75.5189 44.8217 83.8273 43.4033 89.579C43.344 89.8194 43.1094 89.9733 42.8649 89.9349V89.9349C42.6154 89.8957 42.442 89.6671 42.4696 89.4163C43.1485 83.2331 43.576 78.9803 44.5772 75.8882Z" fill="#53320B"/>
<rect x="43" y="68" width="28" height="25" rx="10" fill="#C5B66B"/>
<g filter="url(#filter3_d_44_10415)">
<path d="M49.1674 77.748C54.0441 74.0194 61.4185 74.1491 65.9749 77.748C70.5313 81.3469 65.9749 92 65.9749 92H49.1674C49.1674 92 44.2907 81.4766 49.1674 77.748Z" fill="#78A369"/>
<path d="M66.3049 92.5L66.4347 92.1966L65.9749 92C66.4347 92.1966 66.4347 92.1965 66.4348 92.1963L66.435 92.1957L66.4359 92.1938L66.4387 92.1871L66.4491 92.1624C66.4581 92.1409 66.4711 92.1095 66.4878 92.0687C66.5211 91.9872 66.569 91.8682 66.628 91.716C66.746 91.4118 66.9088 90.9745 67.0894 90.4391C67.4503 89.3697 67.885 87.9012 68.1754 86.3136C68.4651 84.7303 68.6163 83.0022 68.3922 81.4229C68.1678 79.8417 67.5589 78.3619 66.2849 77.3556C61.5474 73.6138 53.9203 73.4847 48.8637 77.3508C47.5115 78.3847 46.8571 79.8773 46.6157 81.4731C46.3751 83.0633 46.5376 84.7914 46.8481 86.3688C47.1594 87.9506 47.6253 89.4086 48.0119 90.4688C48.2055 90.9996 48.3799 91.4327 48.5064 91.734C48.5696 91.8847 48.6209 92.0026 48.6567 92.0833C48.6745 92.1237 48.6885 92.1548 48.6982 92.1761L48.7094 92.2007L48.7125 92.2074L48.7133 92.2093L48.7136 92.2099C48.7137 92.2101 48.7138 92.2102 49.1674 92L48.7138 92.2102L48.8481 92.5H49.1674H65.9749H66.3049Z" stroke="#53320B"/>
</g>
<path d="M47.0101 91.193C47.2869 90.5025 48.0103 90.0255 48.6784 90.3451V90.3451C49.2454 90.6164 48.5031 95.2244 47.409 98.5302C47.3081 98.835 46.9985 99.0175 46.6817 98.9678V98.9678C46.3502 98.9157 46.1121 98.6237 46.1264 98.2888C46.2609 95.1434 46.3408 92.8624 47.0101 91.193Z" fill="#53320B"/>
<path d="M66.3917 90.487C66.4274 89.7444 66.9457 89.0489 67.6836 89.1637V89.1637C68.315 89.262 69.1716 94.2696 69.2454 98.0195C69.2517 98.3398 69.0184 98.6098 68.7016 98.6596V98.6596C68.3712 98.7115 68.052 98.5063 67.9601 98.1843C67.0058 94.8409 66.2981 92.4388 66.3917 90.487Z" fill="#53320B"/>
<path d="M34.2175 75.1058C34.2156 74.5034 34.5596 73.8211 35.1259 74.0359V74.0359C35.6468 74.2335 36.8591 81.4653 37.2639 86.636C37.2833 86.8828 37.1094 87.1002 36.8646 87.1386V87.1386C36.6142 87.178 36.3743 87.0152 36.3168 86.7681C35.1017 81.5401 34.2263 77.9314 34.2175 75.1058Z" fill="#53320B"/>
<path d="M10.5772 74.8882C10.7665 74.3034 11.3207 73.7209 11.773 74.1321V74.1321C12.1983 74.5189 10.8217 82.8273 9.40329 88.579C9.34399 88.8194 9.10938 88.9733 8.86488 88.9349V88.9349C8.61544 88.8957 8.44203 88.6671 8.46958 88.4163C9.14851 82.2331 9.57604 77.9803 10.5772 74.8882Z" fill="#53320B"/>
<rect x="9" y="67" width="28" height="25" rx="10" fill="#C5B66B"/>
<g filter="url(#filter4_d_44_10415)">
<path d="M15.1674 76.748C20.0441 73.0194 27.4185 73.1491 31.9749 76.748C36.5313 80.3469 31.9749 91 31.9749 91H15.1674C15.1674 91 10.2907 80.4766 15.1674 76.748Z" fill="#78A369"/>
<path d="M32.3049 91.5L32.4347 91.1966L31.9749 91C32.4347 91.1966 32.4347 91.1965 32.4348 91.1963L32.435 91.1957L32.4359 91.1938L32.4387 91.1871L32.4491 91.1624C32.4581 91.1409 32.4711 91.1095 32.4878 91.0687C32.5211 90.9872 32.569 90.8682 32.628 90.716C32.746 90.4118 32.9088 89.9745 33.0894 89.4391C33.4503 88.3697 33.885 86.9012 34.1754 85.3136C34.4651 83.7303 34.6163 82.0022 34.3922 80.4229C34.1678 78.8417 33.5589 77.3619 32.2849 76.3556C27.5474 72.6138 19.9203 72.4847 14.8637 76.3508C13.5115 77.3847 12.8571 78.8773 12.6157 80.4731C12.3751 82.0633 12.5376 83.7914 12.8481 85.3688C13.1594 86.9506 13.6253 88.4086 14.0119 89.4688C14.2055 89.9996 14.3799 90.4327 14.5064 90.734C14.5696 90.8847 14.6209 91.0026 14.6567 91.0833C14.6745 91.1237 14.6885 91.1548 14.6982 91.1761L14.7094 91.2007L14.7125 91.2074L14.7133 91.2093L14.7136 91.2099C14.7137 91.2101 14.7138 91.2102 15.1674 91L14.7138 91.2102L14.8481 91.5H15.1674H31.9749H32.3049Z" stroke="#53320B"/>
</g>
<path d="M13.0101 90.193C13.2869 89.5025 14.0103 89.0255 14.6784 89.3451V89.3451C15.2454 89.6164 14.5031 94.2244 13.409 97.5302C13.3081 97.835 12.9985 98.0175 12.6817 97.9678V97.9678C12.3502 97.9157 12.1121 97.6237 12.1264 97.2888C12.2609 94.1434 12.3408 91.8624 13.0101 90.193Z" fill="#53320B"/>
<path d="M32.3917 89.487C32.4274 88.7444 32.9457 88.0489 33.6836 88.1637V88.1637C34.315 88.262 35.1716 93.2696 35.2454 97.0195C35.2517 97.3398 35.0184 97.6098 34.7016 97.6596V97.6596C34.3712 97.7115 34.052 97.5063 33.9601 97.1843C33.0058 93.8409 32.2981 91.4388 32.3917 89.487Z" fill="#53320B"/>
<path d="M105.217 23.1058C105.216 22.5034 105.56 21.8211 106.126 22.0359C106.647 22.2335 107.859 29.4653 108.264 34.636C108.283 34.8828 108.109 35.1002 107.865 35.1386C107.614 35.178 107.374 35.0152 107.317 34.7681C106.102 29.5401 105.226 25.9314 105.217 23.1058Z" fill="#53320B"/>
<path d="M81.5772 22.8882C81.7665 22.3034 82.3207 21.7209 82.773 22.1321C83.1983 22.5189 81.8217 30.8273 80.4033 36.579C80.344 36.8194 80.1094 36.9733 79.8649 36.9349C79.6154 36.8957 79.442 36.6671 79.4696 36.4163C80.1485 30.2331 80.576 25.9803 81.5772 22.8882Z" fill="#53320B"/>
<rect x="80" y="15" width="28" height="25" rx="10" fill="#C5B66B"/>
<g filter="url(#filter5_d_44_10415)">
<path d="M86.1674 3.74802C91.0441 0.0194235 98.4185 0.149138 102.975 3.74802C107.531 7.3469 102.975 18 102.975 18H86.1674C86.1674 18 81.2907 7.47661 86.1674 3.74802Z" fill="#78A369"/>
<path d="M103.305 18.5L103.435 18.1966L102.975 18C103.435 18.1966 103.435 18.1965 103.435 18.1963L103.435 18.1957L103.436 18.1938L103.439 18.1871L103.449 18.1624C103.458 18.1409 103.471 18.1095 103.488 18.0687C103.521 17.9872 103.569 17.8682 103.628 17.716C103.746 17.4118 103.909 16.9745 104.089 16.4391C104.45 15.3697 104.885 13.9012 105.175 12.3136C105.465 10.7303 105.616 9.00215 105.392 7.42291C105.168 5.84173 104.559 4.36193 103.285 3.35565C98.5474 -0.386232 90.9203 -0.51533 85.8637 3.35081C84.5115 4.38471 83.8571 5.87727 83.6157 7.47309C83.3751 9.06327 83.5376 10.7914 83.8481 12.3688C84.1594 13.9506 84.6253 15.4086 85.0119 16.4688C85.2055 16.9996 85.3799 17.4327 85.5064 17.734C85.5696 17.8847 85.6209 18.0026 85.6567 18.0833C85.6745 18.1237 85.6885 18.1548 85.6982 18.1761L85.7094 18.2007L85.7125 18.2074L85.7133 18.2093L85.7136 18.2099C85.7137 18.2101 85.7138 18.2102 86.1674 18L85.7138 18.2102L85.8481 18.5H86.1674H102.975H103.305Z" stroke="#53320B"/>
</g>
<path d="M84.0101 38.193C84.2869 37.5025 85.0103 37.0255 85.6784 37.3451C86.2454 37.6164 85.5031 42.2244 84.409 45.5302C84.3081 45.835 83.9985 46.0175 83.6817 45.9678C83.3502 45.9157 83.1121 45.6237 83.1264 45.2888C83.2609 42.1434 83.3408 39.8624 84.0101 38.193Z" fill="#53320B"/>
<path d="M103.392 37.487C103.427 36.7444 103.946 36.0489 104.684 36.1637C105.315 36.262 106.172 41.2696 106.245 45.0195C106.252 45.3398 106.018 45.6098 105.702 45.6596C105.371 45.7115 105.052 45.5063 104.96 45.1843C104.006 41.8409 103.298 39.4388 103.392 37.487Z" fill="#53320B"/>
<path d="M67.2175 23.1058C67.2156 22.5034 67.5596 21.8211 68.1259 22.0359V22.0359C68.6468 22.2335 69.8591 29.4653 70.2639 34.636C70.2833 34.8828 70.1094 35.1002 69.8646 35.1386V35.1386C69.6142 35.178 69.3743 35.0152 69.3168 34.7681C68.1017 29.5401 67.2263 25.9314 67.2175 23.1058Z" fill="#53320B"/>
<path d="M43.5772 22.8882C43.7665 22.3034 44.3207 21.7209 44.773 22.1321V22.1321C45.1983 22.5189 43.8217 30.8273 42.4033 36.579C42.344 36.8194 42.1094 36.9733 41.8649 36.9349V36.9349C41.6154 36.8957 41.442 36.6671 41.4696 36.4163C42.1485 30.2331 42.576 25.9803 43.5772 22.8882Z" fill="#53320B"/>
<rect x="42" y="15" width="28" height="25" rx="10" fill="#C5B66B"/>
<g filter="url(#filter6_d_44_10415)">
<path d="M48.1674 3.74802C53.0441 0.0194235 60.4185 0.149138 64.9749 3.74802C69.5313 7.3469 64.9749 18 64.9749 18H48.1674C48.1674 18 43.2907 7.47661 48.1674 3.74802Z" fill="#78A369"/>
<path d="M65.3049 18.5L65.4347 18.1966L64.9749 18C65.4347 18.1966 65.4347 18.1965 65.4348 18.1963L65.435 18.1957L65.4359 18.1938L65.4387 18.1871L65.4491 18.1624C65.4581 18.1409 65.4711 18.1095 65.4878 18.0687C65.5211 17.9872 65.569 17.8682 65.628 17.716C65.746 17.4118 65.9088 16.9745 66.0894 16.4391C66.4503 15.3697 66.885 13.9012 67.1754 12.3136C67.4651 10.7303 67.6163 9.00215 67.3922 7.42291C67.1678 5.84173 66.5589 4.36193 65.2849 3.35565C60.5474 -0.386232 52.9203 -0.51533 47.8637 3.35081C46.5115 4.38471 45.8571 5.87727 45.6157 7.47309C45.3751 9.06327 45.5376 10.7914 45.8481 12.3688C46.1594 13.9506 46.6253 15.4086 47.0119 16.4688C47.2055 16.9996 47.3799 17.4327 47.5064 17.734C47.5696 17.8847 47.6209 18.0026 47.6567 18.0833C47.6745 18.1237 47.6885 18.1548 47.6982 18.1761L47.7094 18.2007L47.7125 18.2074L47.7133 18.2093L47.7136 18.2099C47.7137 18.2101 47.7138 18.2102 48.1674 18L47.7138 18.2102L47.8481 18.5H48.1674H64.9749H65.3049Z" stroke="#53320B"/>
</g>
<path d="M46.0101 38.193C46.2869 37.5025 47.0103 37.0255 47.6784 37.3451V37.3451C48.2454 37.6164 47.5031 42.2244 46.409 45.5302C46.3081 45.835 45.9985 46.0175 45.6817 45.9678V45.9678C45.3502 45.9157 45.1121 45.6237 45.1264 45.2888C45.2609 42.1434 45.3408 39.8624 46.0101 38.193Z" fill="#53320B"/>
<path d="M65.3917 37.487C65.4274 36.7444 65.9457 36.0489 66.6836 36.1637V36.1637C67.315 36.262 68.1716 41.2696 68.2454 45.0195C68.2517 45.3398 68.0184 45.6098 67.7016 45.6596V45.6596C67.3712 45.7115 67.052 45.5063 66.9601 45.1843C66.0058 41.8409 65.2981 39.4388 65.3917 37.487Z" fill="#53320B"/>
<path d="M34.2175 23.1058C34.2156 22.5034 34.5596 21.8211 35.1259 22.0359V22.0359C35.6468 22.2335 36.8591 29.4653 37.2639 34.636C37.2833 34.8828 37.1094 35.1002 36.8646 35.1386V35.1386C36.6142 35.178 36.3743 35.0152 36.3168 34.7681C35.1017 29.5401 34.2263 25.9314 34.2175 23.1058Z" fill="#53320B"/>
<path d="M10.5772 22.8882C10.7665 22.3034 11.3207 21.7209 11.773 22.1321V22.1321C12.1983 22.5189 10.8217 30.8273 9.40329 36.579C9.34399 36.8194 9.10938 36.9733 8.86488 36.9349V36.9349C8.61544 36.8957 8.44203 36.6671 8.46958 36.4163C9.14851 30.2331 9.57604 25.9803 10.5772 22.8882Z" fill="#53320B"/>
<rect x="9" y="15" width="28" height="25" rx="10" fill="#C5B66B"/>
<g filter="url(#filter7_d_44_10415)">
<path d="M15.1674 3.74802C20.0441 0.0194235 27.4185 0.149138 31.9749 3.74802C36.5313 7.3469 31.9749 18 31.9749 18H15.1674C15.1674 18 10.2907 7.47661 15.1674 3.74802Z" fill="#78A369"/>
<path d="M32.3049 18.5L32.4347 18.1966L31.9749 18C32.4347 18.1966 32.4347 18.1965 32.4348 18.1963L32.435 18.1957L32.4359 18.1938L32.4387 18.1871L32.4491 18.1624C32.4581 18.1409 32.4711 18.1095 32.4878 18.0687C32.5211 17.9872 32.569 17.8682 32.628 17.716C32.746 17.4118 32.9088 16.9745 33.0894 16.4391C33.4503 15.3697 33.885 13.9012 34.1754 12.3136C34.4651 10.7303 34.6163 9.00215 34.3922 7.42291C34.1678 5.84173 33.5589 4.36193 32.2849 3.35565C27.5474 -0.386232 19.9203 -0.51533 14.8637 3.35081C13.5115 4.38471 12.8571 5.87727 12.6157 7.47309C12.3751 9.06327 12.5376 10.7914 12.8481 12.3688C13.1594 13.9506 13.6253 15.4086 14.0119 16.4688C14.2055 16.9996 14.3799 17.4327 14.5064 17.734C14.5696 17.8847 14.6209 18.0026 14.6567 18.0833C14.6745 18.1237 14.6885 18.1548 14.6982 18.1761L14.7094 18.2007L14.7125 18.2074L14.7133 18.2093L14.7136 18.2099C14.7137 18.2101 14.7138 18.2102 15.1674 18L14.7138 18.2102L14.8481 18.5H15.1674H31.9749H32.3049Z" stroke="#53320B"/>
</g>
<path d="M13.0101 38.193C13.2869 37.5025 14.0103 37.0255 14.6784 37.3451V37.3451C15.2454 37.6164 14.5031 42.2244 13.409 45.5302C13.3081 45.835 12.9985 46.0175 12.6817 45.9678V45.9678C12.3502 45.9157 12.1121 45.6237 12.1264 45.2888C12.2609 42.1434 12.3408 39.8624 13.0101 38.193Z" fill="#53320B"/>
<path d="M32.3917 37.487C32.4274 36.7444 32.9457 36.0489 33.6836 36.1637V36.1637C34.315 36.262 35.1716 41.2696 35.2454 45.0195C35.2517 45.3398 35.0184 45.6098 34.7016 45.6596V45.6596C34.3712 45.7115 34.052 45.5063 33.9601 45.1843C33.0058 41.8409 32.2981 39.4388 32.3917 37.487Z" fill="#53320B"/>
<path d="M111.577 59.1019C111.767 58.5171 112.321 57.9345 112.773 58.3458C113.198 58.7325 111.822 67.0409 110.403 72.7926C110.344 73.0331 110.109 73.1869 109.865 73.1485C109.615 73.1093 109.442 72.8808 109.47 72.6299C110.149 66.4467 110.576 62.1939 111.577 59.1019Z" fill="#53320B"/>
<path d="M75.5772 41.1019C75.7665 40.5171 76.3207 39.9345 76.773 40.3458C77.1983 40.7325 75.8217 49.0409 74.4033 54.7926C74.344 55.0331 74.1094 55.1869 73.8649 55.1485C73.6154 55.1093 73.442 54.8808 73.4696 54.6299C74.1485 48.4467 74.576 44.1939 75.5772 41.1019Z" fill="#53320B"/>
<path d="M77.5772 59.1019C77.7665 58.5171 78.3207 57.9345 78.773 58.3458C79.1983 58.7325 77.8217 67.0409 76.4033 72.7926C76.344 73.0331 76.1094 73.1869 75.8649 73.1485C75.6154 73.1093 75.442 72.8808 75.4696 72.6299C76.1485 66.4467 76.576 62.1939 77.5772 59.1019Z" fill="#53320B"/>
<path d="M86 69C80.4772 69 76 64.5228 76 59V41C76 35.4772 80.4772 31 86 31L105 31C110.523 31 115 35.4772 115 41V59C115 64.5228 110.523 69 105 69H86Z" fill="#F77E7E"/>
<path d="M48 68C42.4772 68 38 63.5228 38 58L38 40C38 34.4772 42.4772 30 48 30L67 30C72.5228 30 77 34.4772 77 40V58C77 63.5228 72.5228 68 67 68H48Z" fill="#F77E7E"/>
<path d="M10 68C4.47715 68 0 63.5228 0 58L0 40C0 34.4772 4.47715 30 10 30L29 30C34.5228 30 39 34.4772 39 40L39 58C39 63.5228 34.5228 68 29 68H10Z" fill="#F77E7E"/>
<defs>
<filter id="filter0_d_44_10415" x="118" y="75" width="31" height="27" filterUnits="userSpaceOnUse" color-interpolation-filters="sRGB">
<feFlood flood-opacity="0" result="BackgroundImageFix"/>
<feColorMatrix in="SourceAlpha" type="matrix" values="0 0 0 0 0 0 0 0 0 0 0 0 0 0 0 0 0 0 127 0" result="hardAlpha"/>
<feOffset dy="4"/>
<feGaussianBlur stdDeviation="2"/>
<feComposite in2="hardAlpha" operator="out"/>
<feColorMatrix type="matrix" values="0 0 0 0 0 0 0 0 0 0 0 0 0 0 0 0 0 0 0.25 0"/>
<feBlend mode="normal" in2="BackgroundImageFix" result="effect1_dropShadow_44_10415"/>
<feBlend mode="normal" in="SourceGraphic" in2="effect1_dropShadow_44_10415" result="shape"/>
</filter>
<filter id="filter1_d_44_10415" x="116" y="0" width="31" height="27" filterUnits="userSpaceOnUse" color-interpolation-filters="sRGB">
<feFlood flood-opacity="0" result="BackgroundImageFix"/>
<feColorMatrix in="SourceAlpha" type="matrix" values="0 0 0 0 0 0 0 0 0 0 0 0 0 0 0 0 0 0 127 0" result="hardAlpha"/>
<feOffset dy="4"/>
<feGaussianBlur stdDeviation="2"/>
<feComposite in2="hardAlpha" operator="out"/>
<feColorMatrix type="matrix" values="0 0 0 0 0 0 0 0 0 0 0 0 0 0 0 0 0 0 0.25 0"/>
<feBlend mode="normal" in2="BackgroundImageFix" result="effect1_dropShadow_44_10415"/>
<feBlend mode="normal" in="SourceGraphic" in2="effect1_dropShadow_44_10415" result="shape"/>
</filter>
<filter id="filter2_d_44_10415" x="81" y="75" width="31" height="27" filterUnits="userSpaceOnUse" color-interpolation-filters="sRGB">
<feFlood flood-opacity="0" result="BackgroundImageFix"/>
<feColorMatrix in="SourceAlpha" type="matrix" values="0 0 0 0 0 0 0 0 0 0 0 0 0 0 0 0 0 0 127 0" result="hardAlpha"/>
<feOffset dy="4"/>
<feGaussianBlur stdDeviation="2"/>
<feComposite in2="hardAlpha" operator="out"/>
<feColorMatrix type="matrix" values="0 0 0 0 0 0 0 0 0 0 0 0 0 0 0 0 0 0 0.25 0"/>
<feBlend mode="normal" in2="BackgroundImageFix" result="effect1_dropShadow_44_10415"/>
<feBlend mode="normal" in="SourceGraphic" in2="effect1_dropShadow_44_10415" result="shape"/>
</filter>
<filter id="filter3_d_44_10415" x="42" y="74" width="31" height="27" filterUnits="userSpaceOnUse" color-interpolation-filters="sRGB">
<feFlood flood-opacity="0" result="BackgroundImageFix"/>
<feColorMatrix in="SourceAlpha" type="matrix" values="0 0 0 0 0 0 0 0 0 0 0 0 0 0 0 0 0 0 127 0" result="hardAlpha"/>
<feOffset dy="4"/>
<feGaussianBlur stdDeviation="2"/>
<feComposite in2="hardAlpha" operator="out"/>
<feColorMatrix type="matrix" values="0 0 0 0 0 0 0 0 0 0 0 0 0 0 0 0 0 0 0.25 0"/>
<feBlend mode="normal" in2="BackgroundImageFix" result="effect1_dropShadow_44_10415"/>
<feBlend mode="normal" in="SourceGraphic" in2="effect1_dropShadow_44_10415" result="shape"/>
</filter>
<filter id="filter4_d_44_10415" x="8" y="73" width="31" height="27" filterUnits="userSpaceOnUse" color-interpolation-filters="sRGB">
<feFlood flood-opacity="0" result="BackgroundImageFix"/>
<feColorMatrix in="SourceAlpha" type="matrix" values="0 0 0 0 0 0 0 0 0 0 0 0 0 0 0 0 0 0 127 0" result="hardAlpha"/>
<feOffset dy="4"/>
<feGaussianBlur stdDeviation="2"/>
<feComposite in2="hardAlpha" operator="out"/>
<feColorMatrix type="matrix" values="0 0 0 0 0 0 0 0 0 0 0 0 0 0 0 0 0 0 0.25 0"/>
<feBlend mode="normal" in2="BackgroundImageFix" result="effect1_dropShadow_44_10415"/>
<feBlend mode="normal" in="SourceGraphic" in2="effect1_dropShadow_44_10415" result="shape"/>
</filter>
<filter id="filter5_d_44_10415" x="79" y="0" width="31" height="27" filterUnits="userSpaceOnUse" color-interpolation-filters="sRGB">
<feFlood flood-opacity="0" result="BackgroundImageFix"/>
<feColorMatrix in="SourceAlpha" type="matrix" values="0 0 0 0 0 0 0 0 0 0 0 0 0 0 0 0 0 0 127 0" result="hardAlpha"/>
<feOffset dy="4"/>
<feGaussianBlur stdDeviation="2"/>
<feComposite in2="hardAlpha" operator="out"/>
<feColorMatrix type="matrix" values="0 0 0 0 0 0 0 0 0 0 0 0 0 0 0 0 0 0 0.25 0"/>
<feBlend mode="normal" in2="BackgroundImageFix" result="effect1_dropShadow_44_10415"/>
<feBlend mode="normal" in="SourceGraphic" in2="effect1_dropShadow_44_10415" result="shape"/>
</filter>
<filter id="filter6_d_44_10415" x="41" y="0" width="31" height="27" filterUnits="userSpaceOnUse" color-interpolation-filters="sRGB">
<feFlood flood-opacity="0" result="BackgroundImageFix"/>
<feColorMatrix in="SourceAlpha" type="matrix" values="0 0 0 0 0 0 0 0 0 0 0 0 0 0 0 0 0 0 127 0" result="hardAlpha"/>
<feOffset dy="4"/>
<feGaussianBlur stdDeviation="2"/>
<feComposite in2="hardAlpha" operator="out"/>
<feColorMatrix type="matrix" values="0 0 0 0 0 0 0 0 0 0 0 0 0 0 0 0 0 0 0.25 0"/>
<feBlend mode="normal" in2="BackgroundImageFix" result="effect1_dropShadow_44_10415"/>
<feBlend mode="normal" in="SourceGraphic" in2="effect1_dropShadow_44_10415" result="shape"/>
</filter>
<filter id="filter7_d_44_10415" x="8" y="0" width="31" height="27" filterUnits="userSpaceOnUse" color-interpolation-filters="sRGB">
<feFlood flood-opacity="0" result="BackgroundImageFix"/>
<feColorMatrix in="SourceAlpha" type="matrix" values="0 0 0 0 0 0 0 0 0 0 0 0 0 0 0 0 0 0 127 0" result="hardAlpha"/>
<feOffset dy="4"/>
<feGaussianBlur stdDeviation="2"/>
<feComposite in2="hardAlpha" operator="out"/>
<feColorMatrix type="matrix" values="0 0 0 0 0 0 0 0 0 0 0 0 0 0 0 0 0 0 0.25 0"/>
<feBlend mode="normal" in2="BackgroundImageFix" result="effect1_dropShadow_44_10415"/>
<feBlend mode="normal" in="SourceGraphic" in2="effect1_dropShadow_44_10415" result="shape"/>
</filter>
</defs>
</svg>
